<?xml version="1.0" encoding="UTF-8"?>
<!DOCTYPE svg PUBLIC "-//W3C//DTD SVG 1.1//EN" "http://www.w3.org/Graphics/SVG/1.1/DTD/svg11.dtd">
<!-- Creator: CorelDRAW -->
<svg xmlns="http://www.w3.org/2000/svg" xml:space="preserve" width="5.4186mm" height="5.4186mm" version="1.1" style="shape-rendering:geometricPrecision; text-rendering:geometricPrecision; image-rendering:optimizeQuality; fill-rule:evenodd; clip-rule:evenodd"
viewBox="0 0 541.86 541.86"
 xmlns:xlink="http://www.w3.org/1999/xlink"
 xmlns:xodm="http://www.corel.com/coreldraw/odm/2003">
 <defs>
  <style type="text/css">
   <![CDATA[
    .fil0 {fill:none}
    .fil1 {fill:white;fill-rule:nonzero}
   ]]>
  </style>
 </defs>
 <g id="Layer_x0020_1">
  <metadata id="CorelCorpID_0Corel-Layer"/>
  <g id="_2933332087200">
   <rect class="fil0" x="0" y="0" width="541.86" height="541.86"/>
   <path class="fil1" d="M245.68 114.87c0,-14.05 11.41,-25.46 25.47,-25.46 14.05,0 25.46,11.41 25.46,25.46l0 206.63c0,14.06 -11.41,25.47 -25.46,25.47 -14.06,0 -25.47,-11.41 -25.47,-25.47l0 -206.63zm25.47 264.84c20.08,0 36.37,16.29 36.37,36.37 0,20.09 -16.29,36.38 -36.37,36.38 -20.09,0 -36.38,-16.29 -36.38,-36.38 0,-20.08 16.29,-36.37 36.38,-36.37z"/>
  </g>
 </g>
</svg>
