<svg width="19" height="34" viewBox="0 0 19 34" fill="none" xmlns="http://www.w3.org/2000/svg">
<path d="M14.261 12.6863C12.9042 9.89509 12.0133 8.66166 8.92639 7.70626C7.96364 7.40829 5.61887 7.60908 5.21278 8.60836C4.92954 9.30624 4.68461 10.332 5.59351 11.6258C6.50242 12.9196 6.49311 12.9224 8.00374 13.8423C9.97678 14.6771 12.9807 15.2727 14.261 12.6863ZM4.3583 28.9896C11.3745 26.023 16.3392 20.5475 14.8342 14.6024C14.627 14.6322 14.5222 14.6423 14.3551 14.7457C11.5262 16.5066 8.79733 16.0646 7.84121 15.6505C5.54893 14.6575 4.85187 12.8915 4.69282 12.6363C4.33482 12.0619 4.00839 11.4466 3.79445 10.8071C3.15338 8.70251 3.99638 6.64466 6.55572 6.11908C8.2645 5.76787 9.88408 6.14613 11.4386 6.81371C13.9294 8.08849 14.0727 8.56752 14.6934 9.0985C15.0595 9.56789 15.4026 10.0556 15.9217 10.7586C18.185 7.37029 17.9172 3.70126 18.2454 0.0137192C18.4325 0.596245 18.7353 1.16895 18.7881 1.76334C19.0732 4.98346 18.8711 8.14441 17.2912 11.0641C16.8429 11.8931 16.6123 12.6421 16.914 13.6367C17.5 17.5 17.0178 19.5777 15 23C13.4784 25.5814 11.1875 27.4535 8.75817 29.2206C8.15873 29.6567 7.57152 30.1093 6.57979 30.8529C9.01192 31.5805 11.0823 32.2001 13.1526 32.8193C13.1376 32.9752 13.1226 33.1311 13.1075 33.287C12.7354 33.4389 12.3533 33.7411 11.9928 33.7173C10.2581 33.6026 8.52256 33.453 6.80135 33.2132C5.22837 32.9939 3.67963 32.6103 2.11042 32.361C0.570943 32.1161 0.0475735 31.4865 0.832029 30.2896C2.19977 28.2025 3.77513 26.248 5.32765 24.2889C5.53795 24.023 6.12008 24.0511 6.5298 23.9434C6.57616 24.4141 6.81744 24.9887 6.63302 25.3367C6.00145 26.5252 5.22036 27.6336 4.3583 28.9896Z" fill="#03B46E"/>
</svg>
