<svg width="28" height="33" viewBox="0 0 28 33" fill="none" xmlns="http://www.w3.org/2000/svg">
<path d="M19.4169 11.6848C19.0128 8.60767 18.5579 7.15577 15.9318 5.27286C15.1128 4.68562 12.8249 4.13431 12.1235 4.9538C11.6341 5.52623 11.0772 6.42185 11.5301 7.93673C11.983 9.45161 11.9733 9.4513 13.1154 10.8019C14.723 12.218 17.3842 13.7333 19.4169 11.6848ZM4.90515 26.0183C12.4995 25.4238 18.9015 19.7997 19.3545 13.6838C19.1486 13.6465 19.046 13.623 18.8547 13.6682C15.614 14.4437 13.1651 13.1611 12.3891 12.4658C10.5287 10.7986 10.4262 8.90273 10.356 8.61034C10.1981 7.95223 10.0831 7.26524 10.0825 6.59088C10.1401 4.3916 11.5909 2.70614 14.185 3.01722C15.9171 3.22464 17.3339 4.09584 18.5973 5.2209C20.557 7.21821 20.5413 7.71797 20.9622 8.41806C21.161 8.97914 21.3321 9.55032 21.6022 10.3815C24.8212 7.88319 25.7279 4.31789 27.2058 0.923553C27.199 1.53537 27.3051 2.17446 27.1671 2.75502C26.4189 5.89994 25.2272 8.83461 22.8048 11.1045C22.1172 11.7491 21.6615 12.3867 21.633 13.4256C21.5228 17.4611 19.6903 20.6949 16.6935 23.303C14.4334 25.2705 11.8696 26.7216 9.00597 27.6294C8.29933 27.8535 7.5991 28.0971 6.42306 28.4888C8.50011 29.9484 10.2682 31.1912 12.0362 32.4335C11.9726 32.5766 11.9091 32.7198 11.8455 32.8629C11.4444 32.8893 10.9863 33.0551 10.6519 32.9184C9.04253 32.2609 7.4435 31.5699 5.88654 30.7979C4.46372 30.0923 3.11589 29.2384 1.70615 28.5055C0.323231 27.7861 0.025916 27.0232 1.14873 26.136C3.1065 24.5888 5.21928 23.233 7.31183 21.8657C7.59545 21.68 8.13877 21.8909 8.56154 21.9183C8.45661 22.3795 8.50372 23.0009 8.21868 23.2727C7.24354 24.2004 6.15193 25.0047 4.90515 26.0183Z" fill="#03B46E"/>
</svg>
