<?xml version="1.0" encoding="UTF-8"?>
<!DOCTYPE svg PUBLIC "-//W3C//DTD SVG 1.1//EN" "http://www.w3.org/Graphics/SVG/1.1/DTD/svg11.dtd">
<!-- Creator: CorelDRAW -->
<svg xmlns="http://www.w3.org/2000/svg" xml:space="preserve" width="5.4186mm" height="5.4186mm" version="1.1" style="shape-rendering:geometricPrecision; text-rendering:geometricPrecision; image-rendering:optimizeQuality; fill-rule:evenodd; clip-rule:evenodd"
viewBox="0 0 541.86 541.86"
 xmlns:xlink="http://www.w3.org/1999/xlink"
 xmlns:xodm="http://www.corel.com/coreldraw/odm/2003">
 <defs>
  <style type="text/css">
   <![CDATA[
    .fil0 {fill:none}
    .fil1 {fill:white;fill-rule:nonzero}
    .fil2 {fill:white;fill-rule:nonzero}
   ]]>
  </style>
 </defs>
 <g id="Layer_x0020_1">
  <metadata id="CorelCorpID_0Corel-Layer"/>
  <g id="_2927511526768">
   <polygon class="fil0" points="541.86,0 -0,0 -0,541.87 541.86,541.87 "/>
   <path class="fil1" d="M182.9 167.77c0.23,0.25 0.17,0.18 0,0z"/>
   <path class="fil2" d="M178.5 399.31c-9.94,9.94 -26.08,9.94 -36.01,0 -9.94,-9.93 -9.94,-26.06 0,-36l18.47 -18.48c8.28,-8.28 10.63,-20.06 6.15,-30.89 -0.01,-0.03 -0.02,-0.07 -0.04,-0.1 -4.48,-10.84 -14.48,-17.53 -26.2,-17.53l-26.15 0c-14.05,0 -25.44,-11.4 -25.43,-25.45 -0.01,-14.06 11.38,-25.46 25.43,-25.46l26.15 0c11.72,0 21.73,-6.69 26.21,-17.53 0.01,-0.03 0.02,-0.06 0.03,-0.08 4.49,-10.83 2.14,-22.63 -6.14,-30.91l-18.48 -18.48c-9.94,-9.94 -9.95,-26.07 0,-36 9.93,-9.95 26.06,-9.94 36,0l18.49 18.48c8.28,8.27 20.06,10.63 30.88,6.15 0.03,-0.01 0.07,-0.02 0.1,-0.04 10.84,-4.48 17.53,-14.49 17.53,-26.21l0 -26.16c0,-14.05 11.4,-25.44 25.45,-25.43 14.06,-0.01 25.46,11.38 25.46,25.43l0 26.16c0,11.73 6.7,21.75 17.55,26.22 0.02,0 0.04,0.01 0.07,0.02 10.83,4.49 22.62,2.13 30.9,-6.15l18.47 -18.47c9.94,-9.94 26.08,-9.94 36.01,0 9.94,9.93 9.94,26.07 0,36.01l-18.47 18.48c-8.28,8.28 -10.63,20.06 -6.15,30.88 0.01,0.04 0.02,0.07 0.04,0.1 4.48,10.84 14.48,17.53 26.21,17.53l26.14 0c14.06,0 25.45,11.4 25.43,25.46 0.02,14.05 -11.37,25.45 -25.43,25.45l-26.14 0c-11.73,0 -21.74,6.7 -26.22,17.54 -0.01,0.02 -0.02,0.05 -0.02,0.07 -4.49,10.83 -2.14,22.63 6.14,30.91l18.47 18.48c9.94,9.94 9.95,26.07 0,36 -9.93,9.95 -26.06,9.94 -36,0l-18.48 -18.48c-8.29,-8.28 -20.09,-10.63 -30.92,-6.13 -0.01,0.01 -0.06,0.02 -0.08,0.03 -10.84,4.49 -17.52,14.5 -17.52,26.21l0 26.14c0,14.05 -11.4,25.45 -25.46,25.44 -14.05,0.01 -25.45,-11.39 -25.45,-25.44l0 -26.14c0,-11.72 -6.69,-21.73 -17.54,-26.21 -0.02,-0.01 -0.05,-0.02 -0.07,-0.03 -10.83,-4.49 -22.63,-2.14 -30.91,6.14l-18.47 18.47zm48.98 -84.99c24.01,24 62.92,24 86.93,0 24,-24.01 24,-62.92 0,-86.93 -24.01,-24 -62.92,-24 -86.93,0 -24,24.01 -24,62.92 0,86.93z"/>
  </g>
 </g>
</svg>
