<svg width="146" height="24" viewBox="0 0 146 24" fill="none" xmlns="http://www.w3.org/2000/svg">
    <g clip-path="url(#clip0_110_403)">
        <path fill-rule="evenodd" clip-rule="evenodd"
            d="M-0.000239936 19.5045V2.19216C-0.000800996 1.90553 0.054791 1.62159 0.16336 1.35656C0.271929 1.09154 0.43135 0.85061 0.632518 0.647545C0.833686 0.444479 1.07266 0.28325 1.3358 0.173065C1.59893 0.0628811 1.88107 0.00589668 2.16611 0.00537109H19.3333C18.7599 0.601903 18.4414 1.40046 18.4462 2.23013C18.4509 3.05979 18.7784 3.85463 19.3585 4.44453C19.9387 5.03442 20.7255 5.3725 21.5504 5.38639C22.3753 5.40029 23.1729 5.0889 23.7724 4.51888V21.8137C23.7729 22.1003 23.7173 22.3842 23.6087 22.6492C23.5001 22.9142 23.3407 23.1551 23.1396 23.3581C22.9384 23.5612 22.6994 23.7224 22.4363 23.8326C22.1732 23.9427 21.8911 23.9997 21.6061 24.0002H10.9354C10.9436 23.9959 10.9516 23.9911 10.9596 23.9859C15.8739 20.9043 16.8639 16.5013 16.1869 14.6398C15.3048 12.2124 17.0691 8.47295 17.0691 8.47295C17.0691 8.47295 19.9431 7.44565 19.8899 7.02301C19.8657 6.82785 17.1183 6.88336 17.1183 6.88336C10.4718 2.11175 7.87238 9.36575 7.25915 11.9609C5.71314 12.1288 1.56797 18.0989 1.56797 18.0989C0.972944 18.4579 0.449158 18.9245 0.0230941 19.4753L-0.000239936 19.5045Z"
            fill="#38D47F" />
        <path
            d="M21.5787 4.373C22.7753 4.373 23.7454 3.39407 23.7454 2.1865C23.7454 0.97893 22.7753 0 21.5787 0C20.3821 0 19.4121 0.97893 19.4121 2.1865C19.4121 3.39407 20.3821 4.373 21.5787 4.373Z"
            fill="#FF2F2F" />
        <path fill-rule="evenodd" clip-rule="evenodd"
            d="M50.7035 9.86431V11.896H40.5882C37.3041 11.896 36.591 13.4161 36.591 16.36C36.591 19.304 37.3229 20.8057 40.5882 20.8057H50.7035V22.8577H40.5882C36.1406 22.8577 34.4702 20.6918 34.4702 16.36C34.4702 12.0474 36.1207 9.8626 40.5882 9.8626L50.7035 9.86431ZM64.9098 12.4111L70.0706 22.8603H67.8561L66.1107 19.3266H56.0705L54.3253 22.8603H52.1109L57.2717 12.4111C58.0969 10.7202 59.0929 9.69434 61.0814 9.69434C63.0895 9.69434 64.0652 10.7202 64.9098 12.4111ZM65.1537 17.4646L62.8829 12.848C62.4888 12.05 62.0008 11.5561 61.0814 11.5561C60.1807 11.5561 59.6927 12.05 59.2986 12.848L57.009 17.4646H65.1537ZM74.368 11.993V22.8603H72.285V9.86431H73.8615C77.1268 9.86431 78.0277 10.9852 81.4806 15.735C84.7459 20.2377 85.1212 20.7505 86.8104 20.7505H86.904V9.86431H88.9872V22.8594H87.4108C84.3518 22.8594 83.4324 21.8144 79.8293 17.0079C76.3576 12.4102 76.0947 11.9922 74.4619 11.9922L74.368 11.993ZM104 12.4111L109.161 22.8603H106.947L105.201 19.3254H95.1613L93.4161 22.8591H91.2011L96.3624 12.4111C97.1877 10.7202 98.1836 9.69434 100.172 9.69434C102.18 9.69434 103.156 10.7202 104 12.4111ZM104.244 17.4646L101.974 12.848C101.58 12.05 101.092 11.5561 100.172 11.5561C99.2712 11.5561 98.7835 12.05 98.3891 12.848L96.0998 17.4646H104.244ZM111.376 22.8591V9.86431H122.449C125.582 9.86431 127.309 11.4221 127.309 13.835C127.309 15.697 126.277 16.8748 124.55 17.3306C126.221 17.8248 126.99 18.9457 126.99 20.3704V22.86H124.85V20.333C124.85 19.2882 124.193 18.2812 122.373 18.2812H113.44V22.8597L111.376 22.8591ZM113.441 16.4187H122.599C124.55 16.4187 125.188 15.1267 125.188 14.0628C125.188 12.9988 124.569 11.726 122.599 11.726H113.44V16.4189L113.441 16.4187ZM128.585 9.86431H131.587L135.848 14.7656C136.408 15.3488 136.894 15.9998 137.293 16.7037C137.681 15.9916 138.167 15.339 138.738 14.7656L142.997 9.86431H146L139.901 16.4567C139.394 17.0079 138.324 18.0907 138.324 19.0035V22.8603H136.26V19.0023C136.26 18.1093 135.191 16.9884 134.684 16.4556L128.585 9.86431Z"
            fill="#E7E7E7" />
        <path fill-rule="evenodd" clip-rule="evenodd"
            d="M37.043 6.44222H36.2781V2.0014H33.8235V1.24081H39.4965V2.0014H37.0419V6.44222H37.043ZM46.1102 6.44222H45.3453V4.21423H41.0331V6.44222H40.2611V1.24081H41.0331V3.46136H45.3442V1.24081H46.109V6.44222H46.1102ZM47.3907 1.24081H48.1556V6.44222H47.3907V1.24081ZM50.2078 2.09269V6.44222H49.4361V1.24081H50.02C51.23 1.24081 51.5638 1.6895 52.8431 3.5907C54.0531 5.39347 54.1922 5.59807 54.818 5.59807H54.8527V1.24081H55.6244V6.44222H55.0405C53.9071 6.44222 53.5662 6.02415 52.2313 4.10006C50.9449 2.2598 50.8475 2.09269 50.2426 2.09269H50.2078ZM62.71 6.44222H61.6878L60.6076 4.91388C60.4198 4.65634 60.0385 4.17646 59.5439 4.17646H57.6659V6.44251H56.901V1.24081H57.6659V3.4233H59.4529C59.9398 3.4233 60.3569 2.96717 60.5376 2.70792L61.5598 1.24023H62.5819L61.1913 3.06532C60.9729 3.3746 60.6781 3.62119 60.3359 3.7807C60.7201 3.92894 61.0501 4.19161 61.2818 4.53358L62.7071 6.44222H62.71ZM63.1479 5.68935H67.3477C68.0292 5.68935 68.3072 5.43839 68.3072 5.02032C68.3072 4.57936 67.9806 4.34328 67.1949 4.27489L64.8655 4.06972C63.8015 3.97844 63.2037 3.56008 63.2037 2.64754C63.2037 1.62854 63.9614 1.24081 64.9142 1.24081H68.7733V1.99511H64.8422C64.293 1.99511 63.9799 2.18511 63.9799 2.62636C63.9799 3.02927 64.2304 3.24217 65.0579 3.31056L67.3039 3.50829C68.4233 3.6073 69.0966 3.99475 69.0966 4.99114C69.0966 5.85818 68.5682 6.44365 67.2956 6.44365H63.1456V5.68935H63.1479ZM72.7503 6.44222H71.9857V2.0014H69.5289V1.24081H75.2027V2.0014H72.7481L72.7503 6.44222Z"
            fill="#E7E7E7" />
    </g>
    <defs>
        <clipPath id="clip0_110_403">
            <rect width="146" height="24" fill="white" />
        </clipPath>
    </defs>
</svg>
