<svg version="1.1" xmlns="http://www.w3.org/2000/svg" viewBox="0 0 277.6877170138889 250.6423611111111" width="555.3754340277778" height="501.2847222222222"><!-- svg-source:excalidraw --><metadata></metadata><defs><style class="style-fonts">
      </style></defs><rect x="0" y="0" width="277.6877170138889" height="250.6423611111111" fill="#ffffff"></rect><g transform="translate(10.358072916666515 231.00151909722217) rotate(0 128.48578559027794 -105.68033854166663)" stroke="none"><path fill="#f08c00" d="M -3.85,-1.27 Q -3.85,-1.27 -2.20,-5.65 -0.55,-10.02 1.23,-14.44 3.02,-18.86 4.78,-23.80 6.53,-28.74 7.64,-32.28 8.75,-35.82 9.87,-39.11 11.00,-42.41 12.31,-45.45 13.62,-48.49 14.87,-51.03 16.11,-53.56 17.45,-55.84 18.79,-58.13 21.62,-61.09 24.45,-64.05 28.72,-67.57 32.99,-71.08 38.02,-74.73 43.05,-78.37 48.37,-82.04 53.69,-85.71 58.26,-88.68 62.82,-91.64 66.67,-94.08 70.52,-96.52 73.20,-98.45 75.89,-100.39 77.87,-101.98 79.85,-103.58 81.50,-105.10 83.16,-106.63 82.66,-109.43 82.17,-112.24 79.21,-116.31 76.26,-120.37 73.57,-124.48 70.88,-128.58 67.81,-133.12 64.75,-137.66 61.30,-143.14 57.86,-148.62 55.09,-153.74 52.33,-158.86 50.58,-162.78 48.83,-166.70 47.59,-169.71 46.35,-172.71 45.59,-175.11 44.83,-177.50 44.26,-181.55 43.69,-185.60 44.43,-188.01 45.17,-190.43 46.61,-192.54 48.04,-194.64 49.89,-196.49 51.73,-198.34 54.06,-200.22 56.39,-202.11 58.77,-203.82 61.15,-205.54 63.57,-206.99 65.99,-208.45 69.19,-209.90 72.38,-211.36 76.39,-212.75 80.40,-214.14 84.84,-215.33 89.28,-216.53 94.26,-217.65 99.24,-218.78 104.43,-219.74 109.62,-220.70 114.85,-221.42 120.08,-222.15 125.51,-222.63 130.95,-223.10 136.20,-223.31 141.45,-223.52 145.88,-223.56 150.31,-223.61 154.01,-223.51 157.72,-223.41 161.03,-222.90 164.34,-222.40 167.06,-221.63 169.79,-220.85 171.99,-219.88 174.19,-218.91 177.38,-216.90 180.57,-214.89 182.70,-212.65 184.82,-210.41 186.36,-208.22 187.91,-206.02 189.45,-202.63 190.99,-199.24 192.05,-195.51 193.12,-191.79 193.53,-187.75 193.95,-183.72 193.73,-179.32 193.51,-174.92 192.89,-172.53 192.28,-170.14 191.50,-167.95 190.73,-165.77 189.72,-163.48 188.71,-161.19 187.58,-158.88 186.44,-156.56 185.39,-154.38 184.34,-152.20 183.30,-150.09 182.27,-147.97 181.20,-145.88 180.12,-143.78 178.59,-141.13 177.05,-138.47 175.16,-135.62 173.28,-132.76 171.50,-130.34 169.72,-127.91 168.01,-125.84 166.29,-123.76 164.63,-121.99 162.96,-120.22 159.92,-117.50 156.87,-114.78 154.41,-113.04 151.96,-111.31 150.19,-110.10 148.42,-108.90 147.33,-111.27 146.23,-113.64 150.37,-112.03 154.51,-110.41 157.33,-108.21 160.14,-106.00 163.11,-102.91 166.09,-99.83 169.48,-96.00 172.88,-92.16 176.70,-87.79 180.51,-83.41 184.44,-78.99 188.37,-74.58 192.30,-70.15 196.23,-65.73 199.93,-61.55 203.63,-57.37 206.99,-53.63 210.36,-49.90 213.28,-46.65 216.21,-43.41 219.37,-39.75 222.53,-36.10 225.64,-32.46 228.75,-28.83 231.34,-26.05 233.92,-23.26 236.27,-20.80 238.61,-18.33 240.55,-16.35 242.48,-14.37 244.36,-12.46 246.23,-10.56 247.97,-8.79 249.71,-7.02 252.07,-4.72 254.42,-2.42 255.94,-0.92 257.46,0.56 259.82,3.84 262.17,7.13 262.45,7.97 262.72,8.81 262.71,9.69 262.70,10.57 262.41,11.41 262.12,12.24 261.58,12.94 261.04,13.64 260.30,14.12 259.56,14.61 258.71,14.84 257.86,15.07 256.98,15.01 256.10,14.95 255.28,14.62 254.46,14.28 253.80,13.70 253.13,13.13 252.68,12.36 252.23,11.60 252.05,10.74 251.87,9.87 251.98,9.00 252.08,8.12 252.46,7.32 252.84,6.53 253.45,5.89 254.07,5.26 254.85,4.85 255.64,4.45 256.51,4.31 257.38,4.18 258.25,4.33 259.12,4.48 259.90,4.90 260.67,5.33 261.27,5.97 261.87,6.62 262.24,7.43 262.60,8.23 262.68,9.11 262.77,9.99 262.57,10.85 262.37,11.71 261.91,12.46 261.45,13.21 260.77,13.78 260.09,14.34 259.27,14.66 258.44,14.98 257.56,15.02 256.68,15.05 255.83,14.81 254.98,14.56 254.26,14.06 253.53,13.56 253.00,12.85 252.48,12.14 252.48,12.14 252.48,12.14 251.41,10.23 250.34,8.32 248.78,5.98 247.23,3.64 245.35,1.05 243.47,-1.53 241.94,-3.49 240.40,-5.45 238.73,-7.59 237.06,-9.72 235.43,-11.90 233.79,-14.09 231.66,-16.71 229.52,-19.33 227.02,-22.24 224.52,-25.15 221.37,-28.73 218.22,-32.30 215.04,-35.84 211.86,-39.37 208.85,-42.53 205.83,-45.68 202.34,-49.31 198.84,-52.94 194.99,-56.94 191.13,-60.94 186.99,-65.12 182.84,-69.30 178.62,-73.41 174.39,-77.52 170.26,-81.40 166.13,-85.28 162.45,-88.37 158.76,-91.47 155.71,-93.68 152.65,-95.88 149.27,-97.90 145.90,-99.92 143.54,-100.68 141.18,-101.44 138.69,-104.02 136.20,-106.60 136.19,-109.61 136.18,-112.63 137.61,-114.92 139.04,-117.22 141.36,-118.71 143.68,-120.21 145.78,-121.34 147.88,-122.48 150.17,-123.97 152.47,-125.46 155.28,-128.04 158.09,-130.62 159.59,-132.39 161.09,-134.15 162.58,-136.26 164.08,-138.37 165.59,-141.09 167.09,-143.80 168.39,-146.44 169.69,-149.08 170.70,-151.09 171.71,-153.09 172.69,-155.14 173.67,-157.19 174.69,-159.42 175.70,-161.64 177.51,-165.75 179.31,-169.86 180.41,-173.13 181.50,-176.40 181.74,-179.78 181.98,-183.16 181.81,-186.25 181.65,-189.33 180.98,-192.34 180.32,-195.35 179.38,-198.04 178.44,-200.73 177.06,-203.42 175.67,-206.11 174.22,-207.90 172.77,-209.69 170.01,-211.78 167.25,-213.86 165.11,-214.84 162.98,-215.82 160.17,-216.57 157.36,-217.32 153.88,-217.64 150.41,-217.96 146.07,-217.84 141.73,-217.73 136.64,-217.43 131.55,-217.13 126.30,-216.53 121.05,-215.94 116.02,-215.06 110.99,-214.17 106.03,-213.00 101.07,-211.82 96.39,-210.41 91.71,-209.01 87.75,-207.48 83.79,-205.96 80.24,-204.22 76.69,-202.48 73.91,-201.03 71.13,-199.59 69.10,-198.46 67.08,-197.33 64.92,-195.77 62.76,-194.21 59.26,-191.35 55.77,-188.49 53.99,-185.61 52.21,-182.73 52.55,-178.90 52.89,-175.07 53.76,-172.23 54.62,-169.39 56.37,-165.77 58.13,-162.16 60.98,-157.38 63.84,-152.61 67.47,-147.49 71.10,-142.36 74.53,-138.13 77.96,-133.90 81.15,-130.17 84.34,-126.45 86.48,-123.78 88.62,-121.12 89.79,-119.31 90.96,-117.51 92.05,-115.37 93.15,-113.23 92.96,-109.34 92.78,-105.45 90.41,-102.95 88.05,-100.44 85.98,-99.04 83.92,-97.64 81.67,-96.33 79.41,-95.01 76.56,-93.32 73.71,-91.63 69.95,-89.11 66.19,-86.60 61.79,-83.57 57.39,-80.53 52.27,-76.75 47.14,-72.97 42.49,-69.27 37.84,-65.57 34.10,-62.05 30.37,-58.53 28.10,-56.01 25.83,-53.49 24.42,-51.60 23.02,-49.70 21.64,-47.53 20.26,-45.36 18.87,-42.68 17.48,-40.00 16.23,-36.89 14.98,-33.79 13.78,-30.25 12.58,-26.72 10.98,-21.61 9.38,-16.50 7.90,-12.11 6.42,-7.72 5.13,-3.22 3.85,1.27 3.64,1.71 3.43,2.15 3.13,2.53 2.82,2.91 2.43,3.21 2.04,3.51 1.59,3.70 1.14,3.89 0.65,3.97 0.17,4.05 -0.31,4.01 -0.80,3.98 -1.26,3.82 -1.72,3.67 -2.14,3.41 -2.55,3.15 -2.89,2.80 -3.23,2.44 -3.48,2.02 -3.73,1.60 -3.86,1.13 -4.00,0.66 -4.02,0.17 -4.04,-0.31 -3.95,-0.79 -3.85,-1.27 -3.85,-1.27 L -3.85,-1.27 Z"></path></g><g transform="translate(102.60094393884924 73.46842677298855) rotate(0 16.769748263889028 5.173068576388914)" stroke="none"><path fill="#f08c00" d="M 3.76,-3.43 Q 3.76,-3.43 4.78,-2.46 5.80,-1.48 7.64,-0.25 9.49,0.96 11.68,1.67 13.88,2.37 16.24,3.48 18.61,4.60 20.91,3.98 23.21,3.37 24.51,1.33 25.81,-0.69 26.46,-2.42 27.11,-4.16 27.67,-5.18 28.23,-6.20 29.08,-6.99 29.94,-7.78 31.00,-8.25 32.06,-8.73 33.22,-8.84 34.37,-8.95 35.50,-8.68 36.64,-8.42 37.62,-7.81 38.61,-7.20 39.35,-6.30 40.10,-5.41 40.51,-4.32 40.93,-3.24 40.98,-2.07 41.02,-0.91 40.70,0.19 40.37,1.31 39.71,2.26 39.04,3.22 38.11,3.91 37.18,4.60 36.07,4.96 34.96,5.31 33.80,5.30 32.64,5.28 31.54,4.90 30.45,4.51 29.53,3.80 28.61,3.08 27.97,2.11 27.33,1.14 27.04,0.02 26.74,-1.09 26.82,-2.25 26.90,-3.41 27.34,-4.49 27.78,-5.56 28.55,-6.44 29.31,-7.31 30.32,-7.90 31.32,-8.49 32.46,-8.72 33.60,-8.96 34.75,-8.82 35.90,-8.68 36.95,-8.18 38.00,-7.67 38.83,-6.86 39.67,-6.05 40.20,-5.02 40.73,-3.99 40.90,-2.84 41.08,-1.69 40.87,-0.54 40.67,0.59 40.67,0.59 40.67,0.59 40.13,2.05 39.59,3.50 38.13,6.01 36.68,8.52 35.26,10.36 33.84,12.21 32.05,13.75 30.26,15.30 28.30,16.45 26.34,17.60 24.18,18.16 22.03,18.71 19.86,18.38 17.70,18.05 15.31,16.91 12.92,15.77 10.14,14.24 7.35,12.71 4.61,11.19 1.87,9.67 -0.06,7.65 -2.00,5.64 -2.88,4.54 -3.76,3.43 -4.12,2.93 -4.47,2.43 -4.70,1.86 -4.93,1.29 -5.01,0.68 -5.09,0.07 -5.03,-0.53 -4.96,-1.14 -4.75,-1.72 -4.54,-2.30 -4.20,-2.81 -3.86,-3.32 -3.41,-3.73 -2.95,-4.15 -2.41,-4.44 -1.87,-4.74 -1.28,-4.89 -0.69,-5.05 -0.07,-5.06 0.53,-5.07 1.13,-4.93 1.73,-4.79 2.28,-4.51 2.83,-4.23 3.29,-3.83 3.76,-3.43 3.76,-3.43 L 3.76,-3.43 Z"></path></g><g transform="translate(112.0139213694049 44.40029443129106) rotate(0 0 -0.0922309027778283)" stroke="none"><path fill="#f08c00" d="M 4.24,-1.32 Q 4.24,-1.32 4.30,-0.26 4.36,0.80 3.93,1.76 3.49,2.73 2.65,3.39 1.82,4.05 0.77,4.24 -0.26,4.43 -1.28,4.11 -2.29,3.80 -3.04,3.04 -3.80,2.29 -4.11,1.28 -4.43,0.26 -4.24,-0.77 -4.04,-1.82 -3.39,-2.65 -2.73,-3.49 -1.76,-3.93 -0.79,-4.36 0.26,-4.30 1.32,-4.23 2.23,-3.68 3.14,-3.13 3.69,-2.23 L 4.24,-1.32 Z"></path></g><g transform="translate(135.33661100276936 42.67686815450202) rotate(0 0.00004999999998744897 0.00004999999998744897)" stroke="none"><path fill="#f08c00" d="M 3.14,-3.14 Q 3.14,-3.14 3.55,-2.55 3.97,-1.97 4.18,-1.28 4.40,-0.59 4.38,0.11 4.36,0.83 4.11,1.51 3.86,2.18 3.41,2.74 2.96,3.30 2.36,3.69 1.75,4.08 1.05,4.25 0.36,4.42 -0.35,4.36 -1.07,4.31 -1.73,4.02 -2.39,3.74 -2.92,3.26 -3.46,2.78 -3.81,2.15 -4.16,1.53 -4.30,0.82 -4.43,0.11 -4.34,-0.59 -4.24,-1.30 -3.92,-1.94 -3.60,-2.59 -3.09,-3.09 -2.59,-3.60 -1.94,-3.92 -1.30,-4.24 -0.59,-4.34 0.12,-4.43 0.82,-4.30 1.53,-4.16 2.15,-3.81 2.78,-3.46 3.26,-2.92 3.74,-2.39 4.02,-1.73 4.31,-1.07 4.36,-0.35 4.42,0.36 4.25,1.05 4.07,1.75 3.69,2.36 3.30,2.96 2.74,3.41 2.18,3.86 1.51,4.11 0.83,4.36 0.11,4.38 -0.60,4.40 -1.28,4.18 -1.97,3.97 -2.55,3.55 -3.14,3.13 -3.14,3.14 -3.14,3.14 -3.47,2.71 -3.80,2.29 -4.02,1.80 -4.24,1.32 -4.33,0.79 -4.43,0.26 -4.40,-0.26 -4.36,-0.80 -4.20,-1.31 -4.04,-1.82 -3.77,-2.28 -3.49,-2.73 -3.11,-3.11 -2.73,-3.49 -2.28,-3.77 -1.82,-4.05 -1.31,-4.20 -0.80,-4.36 -0.26,-4.40 0.26,-4.43 0.79,-4.33 1.32,-4.24 1.80,-4.02 2.29,-3.80 2.71,-3.47 3.14,-3.14 3.14,-3.14 L 3.14,-3.14 Z"></path></g></svg>
