<?xml version="1.0" encoding="UTF-8"?>
<!DOCTYPE svg PUBLIC "-//W3C//DTD SVG 1.1//EN" "http://www.w3.org/Graphics/SVG/1.1/DTD/svg11.dtd">
<!-- Creator: CorelDRAW -->
<svg xmlns="http://www.w3.org/2000/svg" xml:space="preserve" width="43.3492mm" height="43.3492mm" version="1.1" style="shape-rendering:geometricPrecision; text-rendering:geometricPrecision; image-rendering:optimizeQuality; fill-rule:evenodd; clip-rule:evenodd"
viewBox="0 0 4334.92 4334.92"
 xmlns:xlink="http://www.w3.org/1999/xlink"
 xmlns:xodm="http://www.corel.com/coreldraw/odm/2003">
 <defs>
  <style type="text/css">
   <![CDATA[
    .fil0 {fill:none}
    .fil1 {fill:#38D47F}
   ]]>
  </style>
 </defs>
 <g id="Layer_x0020_1">
  <metadata id="CorelCorpID_0Corel-Layer"/>
  <circle class="fil0" cx="2167.46" cy="2167.46" r="2167.46"/>
  <g id="copy-icon.svg">
   <g>
    <path class="fil1" d="M2803.29 1216.22l0 154.87 244.23 0 0.21 0 0 0.4c77.13,0.2 147.05,31.46 197.55,82.15 50.09,50.29 81.34,119.81 81.55,196.75l0.39 0 0 0.4 0 1468.01 0 0.19 -0.4 0.01c-0.2,76.94 -31.46,146.86 -82.15,197.55 -50.29,50.09 -119.81,81.35 -196.75,81.55l0 0.4 -0.4 -0.01 -1236.2 0 -0.19 0 0 -0.4c-76.94,-0.19 -147.06,-31.45 -197.55,-82.14 -50.1,-50.29 -81.35,-119.82 -81.55,-196.75l-0.4 0 0 -0.4 0 -328.79 -244.23 0 -0.21 0 0 -0.4c-76.93,-0.2 -147.05,-31.45 -197.55,-82.15 -50.09,-50.28 -81.34,-119.81 -81.55,-196.74l-0.39 0 0 -0.41 0 -1294.09 0 -0.2 0.4 -0.01c0.2,-77.13 31.65,-147.05 82.15,-197.55 50.29,-50.09 119.81,-81.34 196.75,-81.55l0 -0.39 0.4 0 1236.2 0 0.19 0 0 0.4c77.14,0.2 147.06,31.46 197.55,82.15 50.1,50.29 81.35,119.81 81.55,196.75l0.4 0 0 0.4 0 0zm-211.97 154.87l0 -154.87 0 -0.4 0.4 0c0,-18.24 -7.82,-35.06 -20.24,-47.49 -12.22,-12.22 -29.25,-20.04 -47.48,-20.04l0 0.4 -0.21 0 -1236.19 0 -0.41 0 0 -0.4c-18.23,0 -35.06,7.82 -47.48,20.24 -12.23,12.22 -20.04,29.25 -20.04,47.48l0.41 0 0 0.2 0 1294.1 0 0.4 -0.4 0.01c0,18.23 7.81,35.06 20.23,47.48 12.22,12.23 29.25,20.04 47.49,20.04l0 -0.4 0.2 0 244.23 0 0 -927.05 0 -0.2 0.4 0c0.2,-77.13 31.66,-147.06 82.15,-197.55 50.29,-50.09 119.81,-81.34 196.75,-81.55l0 -0.4 0.4 0 779.79 0 0 0zm523.73 1747.71l0 -1468.01 0 -0.4 0.4 0c0,-18.24 -7.82,-35.06 -20.24,-47.49 -12.22,-12.22 -29.25,-20.04 -47.48,-20.04l0 0.41 -0.21 0 -1236.2 0 -0.4 0 0 -0.4c-18.23,0 -35.06,7.82 -47.48,20.24 -12.23,12.22 -20.04,29.25 -20.04,47.48l0.41 0 0 0.2 0 1468.01 0 0.4 -0.4 0c0,18.23 7.81,35.06 20.23,47.48 12.22,12.23 29.25,20.04 47.49,20.04l0 -0.4 0.19 0 1236.2 0 0.4 0 0 0.4c18.24,0 35.06,-7.81 47.49,-20.23 12.22,-12.22 20.04,-29.26 20.04,-47.49l-0.4 0 0 -0.2 0 0z"/>
   </g>
  </g>
 </g>
</svg>
