<?xml version="1.0" encoding="utf-8"?>
<!-- Generator: Adobe Illustrator 28.0.0, SVG Export Plug-In . SVG Version: 6.00 Build 0)  -->
<svg version="1.1" id="uuid-f8d4d392-7c12-4bd9-baff-66fbf7814b91"
	 xmlns="http://www.w3.org/2000/svg" xmlns:xlink="http://www.w3.org/1999/xlink" x="0px" y="0px" viewBox="0 0 1080 1080"
	 style="enable-background:new 0 0 1080 1080;" xml:space="preserve">
<style type="text/css">
	.st0{fill:#225086;}
	.st1{fill:#66DDFF;}
	.st2{fill:#CBF8FF;}
	.st3{fill:#074793;}
	.st4{fill:#0294E4;}
	.st5{fill:#96BCC2;}
</style>
<path class="st0" d="M234,836.2c22.8,14.2,60.8,30.1,101,30.1c36.6,0,70.5-10.6,98.7-28.7c0,0,0.1,0,0.1-0.1L540,771.2V1011
	c-16.8,0-33.8-4.6-48.5-13.8C491.5,997.2,234,836.2,234,836.2z"/>
<path class="st1" d="M472.5,98.9L30.9,596.9c-34.1,38.5-25.2,96.7,19,124.3c0,0,163.4,102.1,184,115c22.8,14.2,60.8,30.1,101,30.1
	c36.6,0,70.5-10.6,98.7-28.7c0,0,0.1,0,0.1-0.1L540,771.2L283.1,610.6l257-289.9V69l0,0C515.1,69,490.2,79,472.5,98.9L472.5,98.9z"
	/>
<polygon class="st2" points="283.1,610.6 286.1,612.5 540,771.2 540.1,771.2 540.1,771.2 540.1,320.8 540,320.7 "/>
<path class="st3" d="M1030.1,721.2c44.2-27.6,53.1-85.8,19-124.3L759.4,270.1C736,259.2,709.8,253,682.1,253
	c-54.5,0-103.1,23.5-135.5,60.4l-6.4,7.2l0,0L797,610.5l0,0l0,0l-257,160.6v239.8c16.9,0,33.7-4.6,48.5-13.8L1030.1,721.2
	L1030.1,721.2z"/>
<path class="st4" d="M540.1,69v251.7l6.4-7.2c32.4-36.9,81.1-60.4,135.5-60.4c27.8,0,53.9,6.3,77.3,17.1L607.5,98.9
	C589.9,79,564.9,69.1,540.1,69L540.1,69z"/>
<polygon class="st5" points="797,610.6 797,610.6 797,610.6 540.1,320.8 540.1,771.1 "/>
</svg>
