<?xml version="1.0" encoding="UTF-8"?>
<!DOCTYPE svg PUBLIC "-//W3C//DTD SVG 1.1//EN" "http://www.w3.org/Graphics/SVG/1.1/DTD/svg11.dtd">
<!-- Creator: CorelDRAW -->
<svg xmlns="http://www.w3.org/2000/svg" xml:space="preserve" width="43.3492mm" height="43.3492mm" version="1.1" style="shape-rendering:geometricPrecision; text-rendering:geometricPrecision; image-rendering:optimizeQuality; fill-rule:evenodd; clip-rule:evenodd"
viewBox="0 0 4334.92 4334.92"
 xmlns:xlink="http://www.w3.org/1999/xlink"
 xmlns:xodm="http://www.corel.com/coreldraw/odm/2003">
 <defs>
  <style type="text/css">
   <![CDATA[
    .fil0 {fill:none}
    .fil1 {fill:#38D47F;fill-rule:nonzero}
   ]]>
  </style>
 </defs>
 <g id="Layer_x0020_1">
  <metadata id="CorelCorpID_0Corel-Layer"/>
  <circle class="fil0" cx="2162.41" cy="2174.27" r="2167.46"/>
  <path class="fil1" d="M2544.08 2902.72c132.83,-69.6 244.45,-175.17 322.09,-303.61 74.91,-123.71 118,-269.22 118,-424.84 0,-227.13 -91.9,-432.71 -240.31,-581.04 -149.07,-148.66 -354.65,-240.72 -581.53,-240.72 -227.13,0 -432.72,91.9 -581.04,240.31 -148.83,148.74 -240.72,354.32 -240.72,581.45 0,159.18 45.16,307.76 123.22,433.29 80.87,130.18 197.21,236.25 335.1,304.28 54.85,27.1 98.94,67.37 129.26,116.09 30.58,48.97 47.15,106.23 47.15,167.3l0 109.22c0,29.33 11.85,55.85 30.75,74.74 19.3,19.31 45.82,31.16 75.15,31.16l187.36 0c29,0 55.6,-12.02 74.74,-31.16 19.31,-18.89 31.16,-45.41 31.16,-74.74l0 -121.89c0,-59.58 15.83,-115.6 44.99,-163.91 29.67,-48.31 71.93,-88.33 124.63,-115.93zm-1706 -1886.47c-41.01,-40.85 -41.26,-107.39 -0.41,-148.41 40.85,-41.02 107.39,-41.26 148.41,-0.41l292.92 292.84c41.02,40.85 41.27,107.39 0.41,148.41 -40.85,41.01 -107.39,41.26 -148.4,0.41l-292.93 -292.84zm2482.27 -166.64c41.01,-41.02 107.8,-41.02 148.82,0 41.02,41.02 41.02,107.81 0,148.82l-292.92 292.93c-41.02,41.02 -107.81,41.02 -148.83,0 -41.01,-41.02 -41.01,-107.81 0,-148.83l292.93 -292.92zm-2913.57 1442.49c-58.09,0 -105.24,-47.15 -105.24,-105.23 0,-58.09 47.15,-105.24 105.24,-105.24l414.23 0c58.09,0 105.24,47.15 105.24,105.24 0,58.08 -47.15,105.23 -105.24,105.23l-414.23 0zm1637.71 -1873.38c0,-58.09 47.15,-105.24 105.24,-105.24 58.09,0 105.24,47.15 105.24,105.24l0 414.24c0,58.08 -47.15,105.23 -105.24,105.23 -58.09,0 -105.24,-47.15 -105.24,-105.23l0 -414.24zm1873.39 1637.72c58.08,0 105.23,47.15 105.23,105.23 0,58.09 -47.15,105.24 -105.23,105.24l-414.24 0c-58.09,0 -105.24,-47.15 -105.24,-105.24 0,-58.08 47.15,-105.23 105.24,-105.23l414.24 0zm-871.73 651.22c-96.95,160.59 -237.32,292.84 -404.62,380.68 -18.48,9.94 -33.06,23.28 -42.43,38.7 -9.03,15.66 -14.17,34.63 -14.17,55.52l0 121.89c0,86.92 -35.63,166.06 -93.05,223.32 -57.01,57.5 -136.23,93.05 -223.32,93.05l-187.36 0c-86.75,0 -165.81,-35.55 -223.15,-92.81 -57.67,-57.75 -93.22,-136.8 -93.22,-223.56l0 -109.22c0,-21.21 -5.39,-40.52 -15.16,-56.26 -10.03,-16.08 -24.95,-29.58 -43.76,-38.86 -173.43,-85.52 -319.27,-218.52 -420.61,-381.51 -98.28,-158.19 -155.21,-344.79 -155.21,-544.33 0,-284.47 115.6,-542.51 302.37,-729.45 187.36,-187.19 445.4,-302.78 729.87,-302.78 284.97,0 543.17,115.59 729.94,302.37 186.7,187.1 302.37,445.22 302.37,729.86 0,194.98 -54.27,377.69 -148.49,533.39z"/>
 </g>
</svg>
