<svg width="245" height="245" viewBox="0 0 245 245" fill="none" xmlns="http://www.w3.org/2000/svg">
<g clip-path="url(#clip0_45_1481)">
<path d="M245 0H0V245H245V0Z" fill="url(#paint0_linear_45_1481)"/>
<path fill-rule="evenodd" clip-rule="evenodd" d="M156.42 151.17C149.814 156.471 135.954 159.273 122.691 159.273C109.427 159.273 95.5628 156.469 88.9583 151.168V161.845C88.9583 167.169 102.812 173.104 122.691 173.104C142.554 173.104 156.398 167.177 156.42 161.856V151.17ZM156.422 130.883L160.38 130.862V130.883C160.38 133.256 159.183 135.471 156.852 137.499C159.678 139.968 160.38 142.389 160.38 144.114C160.38 144.125 160.378 144.135 160.378 144.147V161.845C160.378 171.687 140.961 177 122.691 177C104.465 177 85.099 171.711 85.0059 161.913C85.0059 161.903 85 161.893 85 161.884V144.108C85 144.104 85.004 144.098 85.004 144.092C85.0099 142.368 85.7145 139.956 88.5368 137.493C85.7323 135.035 85.0198 132.636 85.002 130.926H85.004C85.004 130.918 85 130.912 85 130.904V113.129C85 113.123 85.004 113.117 85.004 113.111C85.0099 111.387 85.7165 108.975 88.5387 106.516C85.7323 104.056 85.0198 101.655 85.002 99.9468H85.004C85.004 99.939 85 99.9312 85 99.9234V82.1496C85 82.1437 85.004 82.1379 85.004 82.132C85.0376 72.3031 104.435 67 122.691 67C133.005 67 142.912 68.6268 149.873 71.4634L148.359 75.0638C141.861 72.4161 132.506 70.8965 122.691 70.8965C102.812 70.8965 88.9603 76.8309 88.9603 82.1593C88.9603 87.4858 102.812 93.4202 122.691 93.4202C123.228 93.426 123.752 93.4202 124.282 93.4007L124.449 97.2933C123.863 97.3167 123.277 97.3167 122.691 97.3167C109.427 97.3167 95.5628 94.5131 88.9583 89.212V99.8825L88.9603 99.9273C88.9801 101.971 91.0919 103.756 92.8612 104.89C98.1852 108.258 107.725 110.559 118.363 111.036L118.183 114.929C107.406 114.444 97.9695 112.225 91.8954 108.823C90.3992 109.934 88.9603 111.436 88.9603 113.138C88.9603 118.465 102.812 124.399 122.691 124.399C124.641 124.399 126.576 124.335 128.447 124.206L128.722 128.093C126.762 128.228 124.732 128.296 122.691 128.296C109.427 128.296 95.5628 125.492 88.9583 120.191V130.862C88.9781 132.95 91.0919 134.733 92.8612 135.869C98.9491 139.724 110.381 142.124 122.691 142.124H123.562V146.021H122.691C110.185 146.021 98.8185 143.716 91.8677 139.822C90.3794 140.93 88.9603 142.424 88.9603 144.114C88.9603 149.44 102.812 155.376 122.691 155.376C142.554 155.376 156.398 149.45 156.42 144.127V144.108C156.416 142.415 154.991 140.918 153.499 139.81C152.533 140.353 151.498 140.878 150.32 141.359L148.804 137.758C150.241 137.172 151.488 136.539 152.511 135.872C154.296 134.717 156.422 132.911 156.422 130.883ZM173.376 102.39H162.284C161.629 102.39 161.014 102.07 160.648 101.537C160.278 101.003 160.202 100.323 160.444 99.7247L167.191 82.9854H141.642L129.767 106.364H142.398C143.029 106.364 143.623 106.662 143.997 107.163C144.367 107.666 144.476 108.311 144.284 108.905L133.011 143.782L173.376 102.39ZM179.45 101.792L129.973 152.524C129.587 152.918 129.068 153.122 128.544 153.122C128.195 153.122 127.845 153.035 127.532 152.85C126.741 152.386 126.378 151.449 126.657 150.584L139.692 110.261H126.564C125.878 110.261 125.242 109.912 124.88 109.337C124.52 108.763 124.486 108.046 124.795 107.442L138.649 80.1663C138.984 79.5058 139.668 79.0889 140.419 79.0889H170.106C170.761 79.0889 171.377 79.4103 171.743 79.9422C172.113 80.478 172.188 81.156 171.947 81.756L165.2 98.4934H178.021C178.812 98.4934 179.531 98.961 179.842 99.678C180.152 100.397 179.998 101.229 179.45 101.792ZM91.838 162.61C94.6425 164.179 98.1733 165.498 102.332 166.526L103.297 162.747C99.5389 161.817 96.2535 160.598 93.7934 159.222L91.838 162.61ZM102.332 135.354L103.297 131.577C99.5389 130.645 96.2535 129.426 93.7934 128.05L91.838 131.438C94.6425 133.007 98.1713 134.326 102.332 135.354ZM91.838 100.266L93.7934 96.8783C96.2496 98.2538 99.537 99.4714 103.297 100.405L102.332 104.182C98.1674 103.152 94.6385 101.833 91.838 100.266Z" fill="white"/>
</g>
<defs>
<linearGradient id="paint0_linear_45_1481" x1="0" y1="24500" x2="24500" y2="0" gradientUnits="userSpaceOnUse">
<stop stop-color="#2E27AD"/>
<stop offset="1" stop-color="#527FFF"/>
</linearGradient>
<clipPath id="clip0_45_1481">
<rect width="245" height="245" fill="white"/>
</clipPath>
</defs>
</svg>
