<svg width="24" height="24" viewBox="0 0 24 24" fill="none" xmlns="http://www.w3.org/2000/svg">
<path d="M8.42229 20.618C10.1779 21.5393 11.0557 22 12 22V12L2.63802 7.07263C2.62423 7.09478 2.6107 7.11715 2.5974 7.13973C2 8.15424 2 9.41666 2 11.9415V12.0585C2 14.5833 2 15.8457 2.5974 16.8603C3.19479 17.8748 4.27063 18.4393 6.42229 19.5685L8.42229 20.618Z" fill="#1F3C80"/>
<path opacity="0.7" d="M17.5774 4.43152L15.5774 3.38197C13.8218 2.46066 12.944 2 11.9997 2C11.0554 2 10.1776 2.46066 8.42197 3.38197L6.42197 4.43152C4.31821 5.53552 3.24291 6.09982 2.6377 7.07264L11.9997 12L21.3617 7.07264C20.7564 6.09982 19.6811 5.53552 17.5774 4.43152Z" fill="#1F3C80"/>
<path opacity="0.5" d="M21.4026 7.13986C21.3893 7.11727 21.3758 7.09491 21.362 7.07275L12 12.0001V22.0001C12.9443 22.0001 13.8221 21.5395 15.5777 20.6181L17.5777 19.5686C19.7294 18.4395 20.8052 17.8749 21.4026 16.8604C22 15.8459 22 14.5834 22 12.0586V11.9416C22 9.41678 22 8.15436 21.4026 7.13986Z" fill="#3E83AE"/>
</svg>
