<svg width="241" height="241" viewBox="0 0 241 241" fill="none" xmlns="http://www.w3.org/2000/svg">
<g clip-path="url(#clip0_45_1486)">
<path d="M241 0H0V241H241V0Z" fill="url(#paint0_linear_45_1486)"/>
<path fill-rule="evenodd" clip-rule="evenodd" d="M162.458 124.846L163.136 120.072C169.388 123.816 169.469 125.363 169.467 125.405C169.457 125.414 168.39 126.304 162.458 124.846ZM159.028 123.892C148.222 120.622 133.174 113.719 127.085 110.841C127.085 110.816 127.092 110.793 127.092 110.769C127.092 108.429 125.189 106.526 122.847 106.526C120.51 106.526 118.606 108.429 118.606 110.769C118.606 113.108 120.51 115.011 122.847 115.011C123.875 115.011 124.807 114.628 125.543 114.019C132.708 117.411 147.64 124.214 158.524 127.427L154.22 157.805C154.207 157.888 154.202 157.971 154.202 158.054C154.202 160.729 142.36 165.643 123.012 165.643C103.458 165.643 91.4908 160.729 91.4908 158.054C91.4908 157.973 91.4855 157.894 91.4749 157.814L82.481 92.1225C90.2654 97.481 107.008 100.317 123.022 100.317C139.011 100.317 155.726 97.4916 163.526 92.149L159.028 123.892ZM81.5311 85.2703C81.6583 82.9468 95.0095 73.8329 123.022 73.8329C151.031 73.8329 164.384 82.945 164.513 85.2703V86.063C162.977 91.2733 145.674 96.7854 123.022 96.7854C100.331 96.7854 83.0195 91.2556 81.5311 86.0383V85.2703ZM168.044 85.3091C168.044 79.1914 150.505 70.3018 123.022 70.3018C95.5392 70.3018 78 79.1914 78 85.3091L78.166 86.6404L87.9614 158.189C88.1962 166.19 109.535 169.174 123.012 169.174C139.735 169.174 157.502 165.329 157.732 158.194L161.962 128.361C164.315 128.924 166.252 129.212 167.808 129.212C169.896 129.212 171.309 128.702 172.165 127.681C172.868 126.844 173.136 125.831 172.935 124.752C172.478 122.309 169.577 119.674 163.669 116.304L167.864 86.7092L168.044 85.3091Z" fill="white"/>
</g>
<defs>
<linearGradient id="paint0_linear_45_1486" x1="0" y1="24100" x2="24100" y2="0" gradientUnits="userSpaceOnUse">
<stop stop-color="#1B660F"/>
<stop offset="1" stop-color="#6CAE3E"/>
</linearGradient>
<clipPath id="clip0_45_1486">
<rect width="241" height="241" fill="white"/>
</clipPath>
</defs>
</svg>
