<svg xmlns="http://www.w3.org/2000/svg" xmlns:xlink="http://www.w3.org/1999/xlink" viewBox="0 0 85 85" fill="#fff" fill-rule="evenodd" stroke="#000" stroke-linecap="round" stroke-linejoin="round"><use xlink:href="#A" x="2.5" y="2.5"/><symbol id="A" overflow="visible"><path d="M35.714 80H0v-3.393l17.857-9.603 17.857 9.603V80zM80 80H44.286v-3.393l17.857-9.603L80 76.607V80zM35.714 37.592H0v-3.393l17.857-9.603 17.857 9.603v3.393zm44.286 0H44.286v-3.393l17.857-9.603L80 34.199v3.393z" fill="#19486f" stroke="none"/><path d="M0 0h35.714v34.2H0zm44.286 0H80v34.2H44.286zM0 42.408h35.714v34.2H0zm44.286 0H80v34.2H44.286z" stroke="none" fill="#2e73b8"/><path d="M49.757 17.099c0-6.571 5.524-11.86 12.386-11.86s12.386 5.29 12.386 11.86S69.004 28.96 62.143 28.96s-12.386-5.29-12.386-11.861z" stroke="none"/></symbol></svg>
