<?xml version="1.0" encoding="UTF-8"?>
<!DOCTYPE svg PUBLIC "-//W3C//DTD SVG 1.1//EN" "http://www.w3.org/Graphics/SVG/1.1/DTD/svg11.dtd">
<!-- Creator: CorelDRAW -->
<svg xmlns="http://www.w3.org/2000/svg" xml:space="preserve" width="86.6988mm" height="86.6988mm" version="1.1" style="shape-rendering:geometricPrecision; text-rendering:geometricPrecision; image-rendering:optimizeQuality; fill-rule:evenodd; clip-rule:evenodd"
viewBox="0 0 8669.88 8669.88"
 xmlns:xlink="http://www.w3.org/1999/xlink"
 xmlns:xodm="http://www.corel.com/coreldraw/odm/2003">
 <defs>
  <style type="text/css">
   <![CDATA[
    .fil28 {fill:none}
    .fil9 {fill:#B5B5B2}
    .fil11 {fill:silver}
    .fil8 {fill:#C5C5C3}
    .fil1 {fill:#D1D1D1}
    .fil2 {fill:#E7E7E4}
    .fil10 {fill:#EBEBEB}
    .fil5 {fill:#F38B89}
    .fil3 {fill:#F6F6F6}
    .fil7 {fill:#FEB1B2}
    .fil4 {fill:#C3EEC6;fill-rule:nonzero}
    .fil6 {fill:#CFF3D2;fill-rule:nonzero}
    .fil27 {fill:white;fill-rule:nonzero}
    .fil13 {fill:url(#id0)}
    .fil20 {fill:url(#id1)}
    .fil16 {fill:url(#id2)}
    .fil15 {fill:url(#id3)}
    .fil17 {fill:url(#id4)}
    .fil19 {fill:url(#id5)}
    .fil14 {fill:url(#id6)}
    .fil23 {fill:url(#id7)}
    .fil12 {fill:url(#id8)}
    .fil0 {fill:url(#id9)}
    .fil21 {fill:url(#id10)}
    .fil18 {fill:url(#id11)}
    .fil22 {fill:url(#id12)}
    .fil25 {fill:url(#id13)}
    .fil24 {fill:url(#id14)}
    .fil26 {fill:url(#id15)}
   ]]>
  </style>
  <linearGradient id="id0" gradientUnits="userSpaceOnUse" x1="6990.52" y1="6763.57" x2="2474.7" y2="1838.62">
   <stop offset="0" style="stop-opacity:1; stop-color:#D1D1CF"/>
   <stop offset="0.541176" style="stop-opacity:1; stop-color:#EEEEEC"/>
   <stop offset="1" style="stop-opacity:1; stop-color:#FAFAFA"/>
  </linearGradient>
  <linearGradient id="id1" gradientUnits="userSpaceOnUse" xlink:href="#id0" x1="4294.02" y1="3787.57" x2="2288.29" y2="4590.87">
  </linearGradient>
  <linearGradient id="id2" gradientUnits="userSpaceOnUse" x1="5080.24" y1="5989.26" x2="1065.39" y2="2904.7">
   <stop offset="0" style="stop-opacity:1; stop-color:#A4A4A1"/>
   <stop offset="0.541176" style="stop-opacity:1; stop-color:#CFCFCC"/>
   <stop offset="1" style="stop-opacity:1; stop-color:#E9E9E9"/>
  </linearGradient>
  <linearGradient id="id3" gradientUnits="userSpaceOnUse" xlink:href="#id0" x1="5795.62" y1="1713.75" x2="5297.36" y2="2232.74">
  </linearGradient>
  <linearGradient id="id4" gradientUnits="userSpaceOnUse" x1="5983.63" y1="7506.94" x2="2560.89" y2="1162">
   <stop offset="0" style="stop-opacity:1; stop-color:#939391"/>
   <stop offset="0.541176" style="stop-opacity:1; stop-color:#BABAB7"/>
   <stop offset="1" style="stop-opacity:1; stop-color:#D9D9D9"/>
  </linearGradient>
  <linearGradient id="id5" gradientUnits="userSpaceOnUse" xlink:href="#id0" x1="5000.38" y1="3026.82" x2="4975.79" y2="3204.84">
  </linearGradient>
  <linearGradient id="id6" gradientUnits="userSpaceOnUse" xlink:href="#id0" x1="6594.7" y1="2284.47" x2="3000.47" y2="6262.17">
  </linearGradient>
  <linearGradient id="id7" gradientUnits="userSpaceOnUse" xlink:href="#id0" x1="6402.78" y1="5955.74" x2="3232.14" y2="2361.04">
  </linearGradient>
  <linearGradient id="id8" gradientUnits="userSpaceOnUse" x1="6272.67" y1="6885.44" x2="1814.22" y2="1883.01">
   <stop offset="0" style="stop-opacity:1; stop-color:#B5B5B2"/>
   <stop offset="0.541176" style="stop-opacity:1; stop-color:#E1E1DE"/>
   <stop offset="1" style="stop-opacity:1; stop-color:#F6F6F6"/>
  </linearGradient>
  <linearGradient id="id9" gradientUnits="userSpaceOnUse" x1="1226.16" y1="4384.23" x2="6860.74" y2="4384.23">
   <stop offset="0" style="stop-opacity:1; stop-color:#B5B5B2"/>
   <stop offset="0.541176" style="stop-opacity:1; stop-color:#E1E1DE"/>
   <stop offset="1" style="stop-opacity:1; stop-color:#E7E7E4"/>
  </linearGradient>
  <linearGradient id="id10" gradientUnits="userSpaceOnUse" xlink:href="#id0" x1="5694.69" y1="3067.47" x2="5390.76" y2="3412.36">
  </linearGradient>
  <linearGradient id="id11" gradientUnits="userSpaceOnUse" xlink:href="#id0" x1="6305.07" y1="4934.2" x2="5123.22" y2="5312.91">
  </linearGradient>
  <linearGradient id="id12" gradientUnits="userSpaceOnUse" xlink:href="#id0" x1="5992.95" y1="2314.36" x2="5871.58" y2="2499.67">
  </linearGradient>
  <linearGradient id="id13" gradientUnits="userSpaceOnUse" x1="2026.63" y1="6448.31" x2="4704.98" y2="6262.13">
   <stop offset="0" style="stop-opacity:1; stop-color:#FD6E6F"/>
   <stop offset="1" style="stop-opacity:1; stop-color:#FFA5A6"/>
  </linearGradient>
  <radialGradient id="id14" gradientUnits="userSpaceOnUse" gradientTransform="matrix(0.966858 -1.05167 -1.05167 -0.966858 7194 15997)" cx="2568.78" cy="6759.93" r="1842.56" fx="2568.78" fy="6759.93">
   <stop offset="0" style="stop-opacity:1; stop-color:#F25A57"/>
   <stop offset="1" style="stop-opacity:1; stop-color:#E14C4A"/>
  </radialGradient>
  <radialGradient id="id15" gradientUnits="userSpaceOnUse" gradientTransform="matrix(0.243081 1.05168 -0.2644 0.966854 3692 -2483)" xlink:href="#id14" cx="2568.78" cy="6608.09" r="878.3" fx="2568.78" fy="6608.09">
  </radialGradient>
 </defs>
 <g id="Layer_x0020_1">
  <metadata id="CorelCorpID_0Corel-Layer"/>
  <g id="_2949663140000">
   <g>
    <g>
     <path class="fil0" d="M3708.85 884.13l12.45 39.55c22.6,0.25 45.2,0.84 67.79,1.83l3.76 -90.53c98.89,5.26 197.63,17.29 295.81,35.81 73.03,13.78 145.76,31.15 218,51.99l12.95 92.31c22.25,6.53 44.46,13.43 66.62,20.64l19.13 -82.07c168.45,56.3 334,131.4 494.59,223.86l-2.72 88.61c20.93,12.17 41.77,24.65 62.52,37.42l32.89 -70.38c157.35,98.35 309.54,213.68 454.63,344.44l-17.47 81.02c18.88,17.15 37.64,34.55 56.27,52.25l44.53 -55.87c139.95,134.49 272.79,284.02 396.66,447.23l-30.92 70.37c16.07,21.34 31.97,42.95 47.72,64.77l53.7 -39.26c117.09,163.9 225.51,340.85 323.49,529.88l-42.67 57c12.54,24.44 24.91,49.1 37.1,73.95l60.4 -21.39c45.5,93.78 88.6,190.31 128.89,289.71 40.28,99.37 76.83,199.39 110.06,299.77l-52.28 41.23c8.73,26.71 17.2,53.44 25.42,80.2l64.58 -2.73c62.89,207.6 111.05,416.73 145.16,625.19l-59.69 23.84c4.44,27.88 8.64,55.75 12.57,83.6l65.77 16.17c29.31,213.66 43.89,426.52 44.17,636.14l-64.67 5.23c-0.09,27.75 -0.46,55.44 -1.07,83.07l64.14 34.69c-5.39,211.48 -25.4,419.43 -59.69,621.27l-66.74 -14.12c-4.64,26.49 -9.54,52.86 -14.69,79.12l59.75 52.37c-40.1,200.72 -94.69,394.92 -163.28,579.96l-65.68 -33.44c-9.15,24.22 -18.53,48.27 -28.18,72.15l52.32 68.33c-73.92,181.02 -161.95,352.46 -263.66,511.62l-61.59 -52.13c-13.46,20.72 -27.18,41.19 -41.12,61.47l41.94 81.76c-105.56,152.17 -224.52,291.95 -356.6,416.54l-54.25 -69.34c-17.23,15.97 -34.69,31.66 -52.37,47.09l29.02 92.14c-67.07,58.05 -137.2,112.5 -210.56,162.68 -73.7,50.42 -149,95.35 -225.57,135.41l-43.5 -83.83c-20.45,10.45 -40.99,20.51 -61.61,30.21l13.85 98.81c-14.75,6.85 -29.56,13.51 -44.4,19.99 93.06,29.13 180.99,66.49 82.55,81.71 -355.75,54.98 -801.99,120.33 -1173.14,76.08l-3.39 -25.16c-62.45,6.1 -102.74,9.76 -102.74,9.76 -183.48,-30.73 -366.56,-84.26 -546.59,-159.78l2.43 -58.55c-65.95,7.39 -107.5,11.81 -107.5,11.81 -180.27,-84.78 -356.59,-191.72 -526.28,-319.57l20.43 -87.6c-39.96,4.17 -79.8,7.84 -118.69,10.79 -166.36,-135.48 -325.19,-291.51 -473.8,-466.71l41.25 -88.27c-8.34,-9.95 -16.64,-19.97 -24.91,-30.05l3.13 3.8c-65.91,7.53 -104.46,10.63 -104.46,10.63 -141.79,-179.17 -272.89,-376.3 -390.65,-590.13l57.72 -72.42c-11.45,-21.07 -22.77,-42.31 -33.96,-63.71l0.35 0.67c-29.56,3.89 -59.62,7.55 -90.02,10.92 -54.68,-106.95 -106.16,-217.57 -153.88,-331.98 -47.74,-114.46 -90.57,-230.06 -129.01,-346.35l70.93 -51.87c-10.03,-30.82 -19.73,-61.7 -29.11,-92.61l-85.2 6.89c-71.77,-240.71 -123.82,-483.44 -157.13,-725l80.23 -28.4c-4.29,-32.1 -8.26,-64.16 -11.87,-96.2l-85.96 -18.17c-26.42,-245.88 -33.32,-489.33 -21.55,-727.02 28.37,-10.97 57.34,-21.47 86.56,-31.51 1.32,-21.84 2.8,-43.62 4.44,-65.35l-81.82 -41.65c19.12,-236.4 56.83,-465.86 112.15,-685.12 0,0 36.46,-12.74 98.92,-33.16l-1.1 4.03c3.17,-11.69 6.4,-23.35 9.67,-34.97l-73.37 -62.1c61.62,-213.52 140.36,-415.92 234.99,-604.3 33.57,-15.42 69.07,-30.35 105.55,-44.68l-49.14 -62.81c98.77,-179.25 212.67,-344.03 340.48,-491.7 34.6,-12.77 67.72,-24.9 99.41,-36.42l-24.2 -46.63c128.71,-136.27 270.16,-255.87 423.45,-356.35 0,0 36.06,-15.27 93.83,-38.61l-5.15 -16.38c75.84,-44.78 154.25,-85.18 235.37,-120.58 285.12,-124.45 737.29,-278.36 933.57,-342.61l-66.46 219.79z"/>
     <path class="fil1" d="M3893.02 1409.67c465.63,-188.29 960.73,-146.69 1415.03,69.87 37.67,-50.05 84.9,-88.89 140.62,-112.39 218.19,-92.05 484.35,85.54 596.99,395.4 38.37,105.55 54.21,213.23 50.04,313.3 292.69,319.51 540.85,726.91 713.87,1203.16 531.16,1462.04 168.21,3118.96 -866.49,3739.01 -1103.85,661.49 -2542.47,-95.1 -3146.39,-1735.93 -605.93,-1646.26 -82.86,-3395.57 1096.33,-3872.42z"/>
     <path class="fil2" d="M3819.65 752.86c21.71,-6.49 43.47,-12.58 65.27,-18.29l-12.79 -97.25c168.59,-42.31 339.13,-61.97 509.48,-60.86l28.85 93.81c22.6,0.26 45.2,0.87 67.79,1.88l3.75 -92.72c98.9,5.38 197.64,17.71 295.81,36.67 73.04,14.11 145.76,31.91 218.01,53.26l12.95 94.54c22.25,6.69 44.45,13.76 66.61,21.14l19.13 -84.05c168.45,57.65 334.01,134.58 494.6,229.28l-2.72 90.77c20.93,12.46 41.77,25.24 62.52,38.32l32.89 -72.09c157.35,100.73 309.54,218.86 454.63,352.8l-17.48 82.98c18.89,17.57 37.65,35.39 56.28,53.52l44.52 -57.22c139.96,137.74 272.79,290.9 396.67,458.08l-30.92 72.07c16.07,21.85 31.97,43.99 47.72,66.34l53.7 -40.22c117.09,167.88 225.51,349.13 323.49,542.74l-42.68 58.38c12.55,25.03 24.91,50.29 37.1,75.74l60.4 -21.9c45.51,96.05 88.61,194.92 128.9,296.74 40.28,101.77 76.82,204.22 110.05,307.04l-52.27 42.23c8.72,27.35 17.19,54.73 25.41,82.14l64.58 -2.8c62.9,212.64 111.06,426.84 145.17,640.36l-59.69 24.42c4.44,28.55 8.64,57.1 12.56,85.62l65.78 16.56c29.3,218.84 43.89,436.87 44.17,651.57l-64.67 5.36c-0.09,28.43 -0.47,56.78 -1.07,85.08l64.14 35.54c-5.39,216.6 -25.41,429.6 -59.69,636.33l-66.74 -14.45c-4.64,27.12 -9.54,54.14 -14.69,81.04l59.74 53.63c-40.09,205.6 -94.69,404.5 -163.28,594.03l-65.68 -34.25c-9.14,24.8 -18.52,49.44 -28.17,73.9l52.31 69.99c-73.91,185.41 -161.95,361.01 -263.65,524.02l-61.59 -53.39c-13.46,21.22 -27.18,42.19 -41.13,62.96l41.95 83.74c-105.56,155.87 -224.52,299.04 -356.6,426.65l-54.25 -71.02c-17.23,16.35 -34.7,32.42 -52.38,48.23l29.03 94.38c-67.08,59.45 -137.2,115.22 -210.56,166.62 -73.71,51.64 -149.01,97.66 -225.57,138.69l-43.5 -85.86c-20.45,10.7 -40.99,21.01 -61.62,30.94l13.86 101.21c-161.32,76.7 -327.89,130.58 -497.56,162.61l-29.87 -97.32c-22.77,4.05 -45.59,7.73 -68.47,10.97l-3.08 102.93c-176.75,24.12 -356.23,24.86 -536.01,2.9l-13.72 -104.37c-23.84,-3.15 -47.67,-6.74 -71.5,-10.71l-20.91 99.31c-183.49,-31.47 -366.56,-86.31 -546.59,-163.66l4.28 -105.78c-23.61,-10.38 -47.16,-21.16 -70.64,-32.34l-38.71 90.25c-180.28,-86.84 -356.6,-196.37 -526.28,-327.32l23 -101.01c-22.15,-17.35 -44.18,-35.05 -66.08,-53.14l-55.18 75.48c-166.37,-138.77 -325.2,-298.58 -473.8,-478.03l41.24 -90.41c-19.27,-23.56 -38.34,-47.5 -57.24,-71.74l-68.99 55.73c-141.8,-183.51 -272.89,-385.42 -390.65,-604.43l57.72 -74.19c-15.03,-28.31 -29.82,-56.92 -44.4,-85.8l-79.23 32.42c-54.68,-109.54 -106.17,-222.84 -153.88,-340.03 -47.74,-117.24 -90.57,-235.64 -129.02,-354.76l70.94 -53.12c-10.03,-31.57 -19.74,-63.19 -29.11,-94.85l-85.2 7.06c-71.77,-246.55 -123.82,-495.18 -157.13,-742.59l80.23 -29.1c-4.29,-32.87 -8.27,-65.71 -11.87,-98.52l-85.96 -18.61c-26.43,-251.85 -33.33,-501.21 -21.55,-744.66l84.96 -3.69c1.67,-31.95 3.71,-63.79 6.03,-95.52l-81.81 -42.66c19.12,-242.14 56.83,-477.16 112.15,-701.74l84.64 21.31c7.31,-29.18 14.93,-58.17 22.85,-86.97l-73.38 -63.6c61.62,-218.69 140.37,-426.01 234.99,-618.95l79.57 44.08c12.38,-24.99 25.02,-49.73 37.95,-74.2l-61.11 -79.99c98.78,-183.59 212.67,-352.36 340.49,-503.62l70.7 63.46c16.62,-19.5 33.51,-38.66 50.61,-57.54l-46.1 -90.98c128.7,-139.58 270.16,-262.08 423.45,-365l58.7 78.53c19.68,-13.07 39.57,-25.8 59.64,-38.21l-29.66 -96.64c75.84,-45.87 154.25,-87.24 235.36,-123.51 80.74,-36.09 162.32,-66.29 244.42,-91.22l44.34 88.52z"/>
     <path class="fil3" d="M3820.14 1483.28c463.21,-184.85 955.13,-144.01 1406.08,68.59 37.56,-49.14 84.59,-87.26 140.02,-110.34 217.07,-90.36 481.14,83.98 592.31,388.17 37.87,103.61 53.35,209.32 48.95,307.56 290.08,313.66 535.69,713.6 706.46,1181.13 524.22,1435.27 159.4,3061.86 -870.42,3670.57 -1098.64,649.38 -2526.46,-93.37 -3122.56,-1704.16 -598.08,-1616.12 -73.91,-3333.41 1099.16,-3801.52z"/>
     <path class="fil4" d="M6046.19 2487.86c201.4,258.31 372.5,566.49 498.54,915.54 441.19,1221.75 187.5,2589.46 -593.35,3239.36l-93.73 141.56 -133.95 18.48c0.78,-1.49 1.55,-3.05 2.27,-4.63 441.42,-956.34 141.67,-1781.44 -74.92,-2084.1 -284.49,-397.44 -304.38,-1221.16 -304.38,-1221.16 0,0 312.01,-373.44 276.61,-448.81 -10.26,-21.92 -157.31,41.76 -265.01,92.02l0.11 3.26 -113.46 51.36c-1254.3,-492.6 -1129.38,1010.92 -918.24,1591.18 -140.47,96.34 -306.49,793.97 -432.39,1406.63l53.16 379.74 -132.73 20.44c-398.38,-310.44 -739.64,-778.75 -954.89,-1367.66 -543.47,-1486.86 -62.45,-3071.51 1014.48,-3510.33 408.48,-166.44 841.47,-141.52 1242.58,31.62 -29.65,128.97 -21.35,281.08 32.25,429.13 113.39,313.16 384.08,485.33 602.08,385.92 82.97,-37.83 146.21,-109.58 186.32,-200.79l108.73 -58.95 -0.08 190.19z"/>
     <path class="fil5" d="M5540.06 1615.35c108.71,22.19 214.3,122.91 267.06,268.95 50.2,138.93 39.98,284 -17.32,382.19l13.63 35.53 -95.07 50.99c-8.31,5.23 -16.98,9.9 -26.01,13.95 -143.87,64.65 -321.79,-49.36 -396.29,-255.23 -69.77,-192.77 -23.3,-395.44 101.95,-471.02l0 -0.02 131.37 -79.26 20.68 53.92z"/>
     <path class="fil6" d="M6046.27 2297.67c250.29,285.3 462.66,642.32 613.13,1056.3 489.17,1345.84 151.42,2867.35 -801.75,3430.35 0.77,-1.51 1.53,-3.09 2.25,-4.68 435.99,-965.04 131.55,-1797.65 -86.75,-2103.07 -286.74,-401.05 -311.31,-1232.27 -311.31,-1232.27 0,0 309.9,-376.84 274.07,-452.9 -16.51,-35.16 -377.53,147.98 -377.53,147.98 -1257.1,-497.08 -1123.64,1020.12 -909.22,1605.66 -172.04,119.53 -377.56,1156.38 -501.71,1823.25 -400.14,-313.26 -744.05,-785.83 -962.65,-1380.1 -551.9,-1500.4 -79.86,-3099.47 994.58,-3542.27 407.53,-167.96 840.66,-142.81 1242.75,31.9 -28.92,130.15 -19.75,283.64 34.69,433.03 115.16,316.01 386.84,489.75 604.27,389.44 82.75,-38.18 145.59,-110.58 185.18,-202.62z"/>
     <path class="fil7" d="M5519.38 1561.43c143.54,-61.52 319.37,54.97 393.79,259.62 74.4,204.58 20.24,422.38 -122.03,487.06 -143.51,65.23 -322.07,-49.82 -397.74,-257.56 -75.71,-207.83 -18.81,-427.06 125.98,-489.12z"/>
     <polygon class="fil8" points="3872.13,637.32 3775.31,664.34 3819.65,752.86 3884.92,734.57 "/>
     <path class="fil9" d="M3459.41 7375.74c71.15,-11.91 120.61,-21.45 120.61,-21.45 -22.15,-17.35 -44.18,-35.05 -66.08,-53.14l-54.53 74.59z"/>
     <path class="fil8" d="M3458.76 7376.63c0,0 -288.12,54.33 -570.47,83.8l-20.43 87.6c0,0 325.61,-23.05 689.16,-92.73l23 -101.01c0,0 -49.46,9.54 -120.61,21.45l-0.65 0.89z"/>
     <path class="fil9" d="M4122.01 7692.37l-38.71 90.25c39.77,-5.85 75.69,-13.01 107.86,-21.1l1.49 -36.81c-23.61,-10.38 -47.16,-21.16 -70.64,-32.34z"/>
     <path class="fil8" d="M4191.16 7761.52c-32.17,8.09 -68.09,15.25 -107.86,21.1 -195.31,28.73 -442.68,57.58 -581.66,73.17l-2.43 58.55c298.4,-11.3 689.16,-83.85 689.16,-83.85l2.79 -68.97z"/>
     <path class="fil10" d="M2899.97 6792.18c35.36,-7.9 67.65,-14.53 97.11,-20.06 -9.41,-11.81 -18.79,-23.7 -28.12,-35.67l-68.99 55.73z"/>
     <path class="fil9" d="M2899.97 6792.18c-241.89,54.04 -461.28,83.71 -584.7,97.81 7.23,8.8 14.49,17.55 21.78,26.25 0,0 395.02,-37.77 689.15,-108.05 -9.75,-11.93 -19.46,-23.95 -29.12,-36.07 -9.41,-11.81 -18.79,-23.7 -28.12,-35.67l-68.99 55.73z"/>
     <path class="fil8" d="M3026.2 6808.19c-294.13,70.28 -689.15,108.05 -689.15,108.05l-41.25 88.27c407.13,-26.09 689.16,-105.91 689.16,-105.91l41.24 -90.41z"/>
     <path class="fil9" d="M1877.88 6238.07c404.56,-39.31 689.16,-124.51 689.16,-124.51 -15.03,-28.31 -29.82,-56.92 -44.4,-85.8l-79.23 32.42c0,0 -268.64,71.39 -599.14,114.85 11.07,21.17 22.27,42.18 33.61,63.04z"/>
     <path class="fil8" d="M2567.04 6113.56c0,0 -284.6,85.2 -689.16,124.51l-57.72 72.42c0,0 369.6,-46.23 689.16,-122.74l57.72 -74.19z"/>
     <path class="fil8" d="M1513.18 5363.14c190.7,-54.5 689.16,-145.72 689.16,-145.72l-85.2 7.06c0,0 -288.77,35.68 -689.16,145.55l85.2 -6.89z"/>
     <path class="fil9" d="M2202.34 5217.42c0,0 -498.46,91.22 -689.16,145.72 9.38,30.91 19.08,61.79 29.11,92.61 0,0 483.7,-96.19 689.16,-143.48 -10.03,-31.57 -19.74,-63.19 -29.11,-94.85z"/>
     <path class="fil8" d="M2231.45 5312.27c-205.46,47.29 -689.16,143.48 -689.16,143.48l-70.93 51.87c0,0 399.34,-86.86 689.15,-142.23l70.94 -53.12z"/>
     <path class="fil8" d="M1339.21 4520.43c0,0 207.35,-67.92 458.03,-122.78 74.64,-16.33 153.13,-31.5 231.13,-43.38l-85.96 -18.61c0,0 -43.91,5.9 -122.24,21 -119.78,23.1 -320.05,67.71 -566.92,145.6l85.96 18.17z"/>
     <path class="fil9" d="M1797.24 4397.65c-250.68,54.86 -458.03,122.78 -458.03,122.78 3.61,32.04 7.58,64.1 11.87,96.2 342.45,-102.39 689.16,-163.84 689.16,-163.84 -0.92,-7.04 -1.83,-14.09 -2.72,-21.14 -3.26,-25.81 -6.32,-51.61 -9.15,-77.38 -78,11.88 -156.49,27.05 -231.13,43.38z"/>
     <path class="fil8" d="M2040.24 4452.79c0,0 -346.71,61.45 -689.16,163.84l-80.23 28.4c0,0 264.78,-86.97 689.16,-163.14l80.23 -29.1z"/>
     <path class="fil9" d="M1322.7 3678.38c-1.64,21.73 -3.12,43.51 -4.44,65.35 289.15,-99.33 602.6,-152.73 602.6,-152.73l84.96 -3.69c1.67,-31.95 3.71,-63.79 6.03,-95.52 -400.96,65.24 -689.15,186.59 -689.15,186.59z"/>
     <path class="fil8" d="M1727.7 2176.43c172.36,-67.72 366.54,-122.14 481.79,-152.04 62.51,-16.21 101.8,-25.21 101.8,-25.21l2.12 1.17c65.39,-18.03 115.4,-31.29 115.4,-31.29l-15.11 -19.78 -46 -60.21c-102.87,20.26 -209.75,50.23 -307.76,81.71 -211.3,67.88 -381.39,142.84 -381.39,142.84l12.24 15.64 36.91 47.17z"/>
     <path class="fil9" d="M2313.41 2000.35l77.45 42.91c12.38,-24.99 25.02,-49.73 37.95,-74.2 0,0 -50.01,13.26 -115.4,31.29z"/>
     <path class="fil9" d="M2138.2 2724.4c3.75,-14.27 7.58,-28.49 11.48,-42.67 -305.57,57.13 -689.16,205.78 -689.16,205.78 -2.9,10.28 -5.76,20.6 -8.57,30.94 122.76,-40.14 345.96,-109.95 590.24,-171.06l84.64 21.31c3.71,-14.82 7.5,-29.58 11.37,-44.3z"/>
     <path class="fil8" d="M1460.52 2887.51c0,0 383.59,-148.65 689.16,-205.78l-52.3 -45.33 -21.08 -18.27c0,0 -5.56,1.11 -16.63,3.58 -60.73,13.52 -287.27,67.84 -672.52,203.7l73.37 62.1z"/>
     <path class="fil8" d="M2783.4 1300.39c-385.72,120.69 -689.16,238.48 -689.16,238.48l24.2 46.63c422.34,-153.64 589.75,-200.05 589.75,-200.05l33.48 30.05c28.34,-9.14 57.11,-18.3 86.18,-27.39l-44.45 -87.72z"/>
     <path class="fil9" d="M2827.85 1388.11c-29.07,9.09 -57.84,18.25 -86.18,27.39l37.22 33.41c16.62,-19.5 33.51,-38.66 50.61,-57.54l-1.65 -3.26z"/>
     <path class="fil8" d="M3206.85 935.39l44.35 59.34c25.63,-6.98 50.42,-13.38 73.99,-19.02l-20 -65.17 -9.66 -31.47c0,0 -376.67,122.72 -689.16,248.46l0.51 1.63c0.26,0.76 3.54,10.52 4.64,14.75 0.14,0.54 542.61,-192.52 595.33,-208.52z"/>
     <path class="fil9" d="M3325.19 975.71c-23.57,5.64 -48.36,12.04 -73.99,19.02l14.35 19.19c19.68,-13.07 39.57,-25.8 59.64,-38.21z"/>
     <path class="fil8" d="M4774.08 8021.88c24.23,-3.91 46.77,-7.91 67.01,-11.96l-13.72 -104.37c0,0 -62.27,10.4 -76.43,12.69l-12.81 60.84 -3.17 15.07c-13.84,2.36 -28.7,4.75 -44.4,7.14 -159.04,24.26 -404.37,49.61 -542.02,63.07l3.39 25.16c0,0 305.89,-23.6 537.62,-55.16 29.66,-4.04 58.1,-8.21 84.53,-12.48z"/>
     <path class="fil9" d="M4755.87 7894.84l-4.93 23.4c14.16,-2.29 76.43,-12.69 76.43,-12.69 -23.84,-3.15 -47.67,-6.74 -71.5,-10.71z"/>
     <path class="fil8" d="M1322.7 3678.38c0,0 157.56,-72.25 689.15,-186.59l-81.81 -42.66c-393.76,79.73 -689.16,187.6 -689.16,187.6l81.82 41.65z"/>
     <path class="fil8" d="M4478.25 672.15l3.75 -92.72 -89.29 33.11 17.75 57.73c22.6,0.26 45.2,0.87 67.79,1.88z"/>
     <path class="fil8" d="M5004.66 733.93l4.11 29.97c22.25,6.69 44.45,13.76 66.61,21.14l19.13 -84.05 -89.85 32.94z"/>
     <path class="fil8" d="M5681.8 987.27l-95.12 33.94c20.83,12.41 41.57,25.13 62.23,38.15l32.89 -72.09z"/>
     <path class="fil8" d="M6219.75 1419.35l-76.77 26.25c10.79,10.23 21.54,20.55 32.25,30.97l44.52 -57.22z"/>
     <path class="fil8" d="M6686.92 1975.62l-66.89 21.6c4.4,6.19 8.8,12.39 13.19,18.62l53.7 -40.22z"/>
     <path class="fil11" d="M5380.11 7906.37l-2.78 93.01c59.38,-5.16 101.19,-8.94 101.19,-8.94l-27.52 -89.68 -2.35 -7.64c-22.77,4.05 -45.59,7.73 -68.47,10.97l-0.07 2.28z"/>
     <path class="fil8" d="M5962.22 7726.62l9.37 68.44c58.25,-8.11 95.75,-13.52 95.75,-13.52l-43.5 -85.86c-20.45,10.7 -40.99,21.01 -61.62,30.94z"/>
     <path class="fil8" d="M6474.44 7381.85l11.79 38.32c59.35,-9.42 94.84,-15.53 94.84,-15.53l-54.25 -71.02c-17.23,16.35 -34.7,32.42 -52.38,48.23z"/>
     <path class="fil8" d="M6898.64 6900.07l99.8 -15.39 -61.59 -53.39c-13.46,21.22 -27.18,42.19 -41.13,62.96l2.92 5.82z"/>
     <path class="fil8" d="M7219.46 6265.83l84.17 -14.81 -65.68 -34.25c-6.05,16.43 -12.21,32.78 -18.49,49.06z"/>
     <path class="fil7" d="M5536.06 1628.39c109.61,-55.87 250.51,35.42 315.53,203.42 65.01,167.93 30.4,351.04 -78.11,409.51 -109.45,58.96 -252.44,-31.05 -318.54,-201.57 -66.14,-170.6 -29.44,-355 81.12,-411.36z"/>
    </g>
    <path class="fil12" d="M3708.85 884.13l12.45 39.55c22.6,0.25 45.2,0.84 67.79,1.83l3.76 -90.53c98.89,5.26 197.63,17.29 295.81,35.81 73.03,13.78 145.76,31.15 218,51.99l12.95 92.31c22.25,6.53 44.46,13.43 66.62,20.64l19.13 -82.07c168.45,56.3 334,131.4 494.59,223.86l-2.72 88.61c20.93,12.17 41.77,24.65 62.52,37.42l32.89 -70.38c157.35,98.35 309.54,213.68 454.63,344.44l-17.47 81.02c18.88,17.15 37.64,34.55 56.27,52.25l44.53 -55.87c139.95,134.49 272.79,284.02 396.66,447.23l-30.92 70.37c16.07,21.34 31.97,42.95 47.72,64.77l53.7 -39.26c117.09,163.9 225.51,340.85 323.49,529.88l-42.67 57c12.54,24.44 24.91,49.1 37.1,73.95l60.4 -21.39c45.5,93.78 88.6,190.31 128.89,289.71 40.28,99.37 76.83,199.39 110.06,299.77l-52.28 41.23c8.73,26.71 17.2,53.44 25.42,80.2l64.58 -2.73c62.89,207.6 111.05,416.73 145.16,625.19l-59.69 23.84c4.44,27.88 8.64,55.75 12.57,83.6l65.77 16.17c29.31,213.66 43.89,426.52 44.17,636.14l-64.67 5.23c-0.09,27.75 -0.46,55.44 -1.07,83.07l64.14 34.69c-5.39,211.48 -25.4,419.43 -59.69,621.27l-66.74 -14.12c-4.64,26.49 -9.54,52.86 -14.69,79.12l59.75 52.37c-40.1,200.72 -94.69,394.92 -163.28,579.96l-65.68 -33.44c-9.15,24.22 -18.53,48.27 -28.18,72.15l52.32 68.33c-73.92,181.02 -161.95,352.46 -263.66,511.62l-61.59 -52.13c-13.46,20.72 -27.18,41.19 -41.12,61.47l41.94 81.76c-105.56,152.17 -224.52,291.95 -356.6,416.54l-54.25 -69.34c-17.23,15.97 -34.69,31.66 -52.37,47.09l29.02 92.14c-67.07,58.05 -137.2,112.5 -210.56,162.68 -73.7,50.42 -149,95.35 -225.57,135.41l-43.5 -83.83c-20.45,10.45 -40.99,20.51 -61.61,30.21l13.85 98.81c-14.75,6.85 -29.56,13.51 -44.4,19.99 93.06,29.13 180.99,66.49 82.55,81.71 -355.75,54.98 -801.99,120.33 -1173.14,76.08l-3.39 -25.16c-62.45,6.1 -102.74,9.76 -102.74,9.76 -183.48,-30.73 -366.56,-84.26 -546.59,-159.78l2.43 -58.55c-65.95,7.39 -107.5,11.81 -107.5,11.81 -180.27,-84.78 -356.59,-191.72 -526.28,-319.57l20.43 -87.6c-39.96,4.17 -79.8,7.84 -118.69,10.79 -166.36,-135.48 -325.19,-291.51 -473.8,-466.71l41.25 -88.27c-8.34,-9.95 -16.64,-19.97 -24.91,-30.05l3.13 3.8c-65.91,7.53 -104.46,10.63 -104.46,10.63 -141.79,-179.17 -272.89,-376.3 -390.65,-590.13l57.72 -72.42c-11.45,-21.07 -22.77,-42.31 -33.96,-63.71l0.35 0.67c-29.56,3.89 -59.62,7.55 -90.02,10.92 -54.68,-106.95 -106.16,-217.57 -153.88,-331.98 -47.74,-114.46 -90.57,-230.06 -129.01,-346.35l70.93 -51.87c-10.03,-30.82 -19.73,-61.7 -29.11,-92.61l-85.2 6.89c-71.77,-240.71 -123.82,-483.44 -157.13,-725l80.23 -28.4c-4.29,-32.1 -8.26,-64.16 -11.87,-96.2l-85.96 -18.17c-26.42,-245.88 -33.32,-489.33 -21.55,-727.02 28.37,-10.97 57.34,-21.47 86.56,-31.51 1.32,-21.84 2.8,-43.62 4.44,-65.35l-81.82 -41.65c19.12,-236.4 56.83,-465.86 112.15,-685.12 0,0 36.46,-12.74 98.92,-33.16l-1.1 4.03c3.17,-11.69 6.4,-23.35 9.67,-34.97l-73.37 -62.1c61.62,-213.52 140.36,-415.92 234.99,-604.3 33.57,-15.42 69.07,-30.35 105.55,-44.68l-49.14 -62.81c98.77,-179.25 212.67,-344.03 340.48,-491.7 34.6,-12.77 67.72,-24.9 99.41,-36.42l-24.2 -46.63c128.71,-136.27 270.16,-255.87 423.45,-356.35 0,0 36.06,-15.27 93.83,-38.61l-5.15 -16.38c75.84,-44.78 154.25,-85.18 235.37,-120.58 285.12,-124.45 737.29,-278.36 933.57,-342.61l-66.46 219.79z"/>
    <path class="fil13" d="M3819.65 752.86c21.71,-6.49 43.47,-12.58 65.27,-18.29l-12.79 -97.25c168.59,-42.31 339.13,-61.97 509.48,-60.86l28.85 93.81c22.6,0.26 45.2,0.87 67.79,1.88l3.75 -92.72c98.9,5.38 197.64,17.71 295.81,36.67 73.04,14.11 145.76,31.91 218.01,53.26l12.95 94.54c22.25,6.69 44.45,13.76 66.61,21.14l19.13 -84.05c168.45,57.65 334.01,134.58 494.6,229.28l-2.72 90.77c20.93,12.46 41.77,25.24 62.52,38.32l32.89 -72.09c157.35,100.73 309.54,218.86 454.63,352.8l-17.48 82.98c18.89,17.57 37.65,35.39 56.28,53.52l44.52 -57.22c139.96,137.74 272.79,290.9 396.67,458.08l-30.92 72.07c16.07,21.85 31.97,43.99 47.72,66.34l53.7 -40.22c117.09,167.88 225.51,349.13 323.49,542.74l-42.68 58.38c12.55,25.03 24.91,50.29 37.1,75.74l60.4 -21.9c45.51,96.05 88.61,194.92 128.9,296.74 40.28,101.77 76.82,204.22 110.05,307.04l-52.27 42.23c8.72,27.35 17.19,54.73 25.41,82.14l64.58 -2.8c62.9,212.64 111.06,426.84 145.17,640.36l-59.69 24.42c4.44,28.55 8.64,57.1 12.56,85.62l65.78 16.56c29.3,218.84 43.89,436.87 44.17,651.57l-64.67 5.36c-0.09,28.43 -0.47,56.78 -1.07,85.08l64.14 35.54c-5.39,216.6 -25.41,429.6 -59.69,636.33l-66.74 -14.45c-4.64,27.12 -9.54,54.14 -14.69,81.04l59.74 53.63c-40.09,205.6 -94.69,404.5 -163.28,594.03l-65.68 -34.25c-9.14,24.8 -18.52,49.44 -28.17,73.9l52.31 69.99c-73.91,185.41 -161.95,361.01 -263.65,524.02l-61.59 -53.39c-13.46,21.22 -27.18,42.19 -41.13,62.96l41.95 83.74c-105.56,155.87 -224.52,299.04 -356.6,426.65l-54.25 -71.02c-17.23,16.35 -34.7,32.42 -52.38,48.23l29.03 94.38c-67.08,59.45 -137.2,115.22 -210.56,166.62 -73.71,51.64 -149.01,97.66 -225.57,138.69l-43.5 -85.86c-20.45,10.7 -40.99,21.01 -61.62,30.94l13.86 101.21c-161.32,76.7 -327.89,130.58 -497.56,162.61l-29.87 -97.32c-22.77,4.05 -45.59,7.73 -68.47,10.97l-3.08 102.93c-176.75,24.12 -356.23,24.86 -536.01,2.9l-13.72 -104.37c-23.84,-3.15 -47.67,-6.74 -71.5,-10.71l-20.91 99.31c-183.49,-31.47 -366.56,-86.31 -546.59,-163.66l4.28 -105.78c-23.61,-10.38 -47.16,-21.16 -70.64,-32.34l-38.71 90.25c-180.28,-86.84 -356.6,-196.37 -526.28,-327.32l23 -101.01c-22.15,-17.35 -44.18,-35.05 -66.08,-53.14l-55.18 75.48c-166.37,-138.77 -325.2,-298.58 -473.8,-478.03l41.24 -90.41c-19.27,-23.56 -38.34,-47.5 -57.24,-71.74l-68.99 55.73c-141.8,-183.51 -272.89,-385.42 -390.65,-604.43l57.72 -74.19c-15.03,-28.31 -29.82,-56.92 -44.4,-85.8l-79.23 32.42c-54.68,-109.54 -106.17,-222.84 -153.88,-340.03 -47.74,-117.24 -90.57,-235.64 -129.02,-354.76l70.94 -53.12c-10.03,-31.57 -19.74,-63.19 -29.11,-94.85l-85.2 7.06c-71.77,-246.55 -123.82,-495.18 -157.13,-742.59l80.23 -29.1c-4.29,-32.87 -8.27,-65.71 -11.87,-98.52l-85.96 -18.61c-26.43,-251.85 -33.33,-501.21 -21.55,-744.66l84.96 -3.69c1.67,-31.95 3.71,-63.79 6.03,-95.52l-81.81 -42.66c19.12,-242.14 56.83,-477.16 112.15,-701.74l84.64 21.31c7.31,-29.18 14.93,-58.17 22.85,-86.97l-73.38 -63.6c61.62,-218.69 140.37,-426.01 234.99,-618.95l79.57 44.08c12.38,-24.99 25.02,-49.73 37.95,-74.2l-61.11 -79.99c98.78,-183.59 212.67,-352.36 340.49,-503.62l70.7 63.46c16.62,-19.5 33.51,-38.66 50.61,-57.54l-46.1 -90.98c128.7,-139.58 270.16,-262.08 423.45,-365l58.7 78.53c19.68,-13.07 39.57,-25.8 59.64,-38.21l-29.66 -96.64c75.84,-45.87 154.25,-87.24 235.36,-123.51 80.74,-36.09 162.32,-66.29 244.42,-91.22l44.34 88.52z"/>
    <path class="fil14" d="M3893.02 1409.67c465.63,-188.29 960.73,-146.69 1415.03,69.87 37.67,-50.05 84.9,-88.89 140.62,-112.39 218.19,-92.05 484.35,85.54 596.99,395.4 38.37,105.55 54.21,213.23 50.04,313.3 292.69,319.51 540.85,726.91 713.87,1203.16 531.16,1462.04 168.21,3118.96 -866.49,3739.01 -1103.85,661.49 -2542.47,-95.1 -3146.39,-1735.93 -605.93,-1646.26 -82.86,-3395.57 1096.33,-3872.42z"/>
    <path class="fil3" d="M3820.14 1483.28c463.21,-184.85 955.13,-144.01 1406.08,68.59 37.56,-49.14 84.59,-87.26 140.02,-110.34 217.07,-90.36 481.14,83.98 592.31,388.17 37.87,103.61 53.35,209.32 48.95,307.56 290.08,313.66 535.69,713.6 706.46,1181.13 524.22,1435.27 159.4,3061.86 -870.42,3670.57 -1098.64,649.38 -2526.46,-93.37 -3122.56,-1704.16 -598.08,-1616.12 -73.91,-3333.41 1099.16,-3801.52z"/>
    <path class="fil15" d="M5540.06 1615.35c108.71,22.19 214.3,122.91 267.06,268.95 50.2,138.93 39.98,284 -17.32,382.19l13.63 35.53 -95.07 50.99c-8.31,5.23 -16.98,9.9 -26.01,13.95 -143.87,64.65 -321.79,-49.36 -396.29,-255.23 -69.77,-192.77 -23.3,-395.44 101.95,-471.02l0 -0.02 131.37 -79.26 20.68 53.92z"/>
    <path class="fil10" d="M2899.97 6792.18c35.36,-7.9 67.65,-14.53 97.11,-20.06 -9.41,-11.81 -18.79,-23.7 -28.12,-35.67l-68.99 55.73z"/>
    <path class="fil16" d="M4755.87 7894.84l-4.93 23.4c14.16,-2.29 76.43,-12.69 76.43,-12.69 -23.84,-3.15 -47.67,-6.74 -71.5,-10.71zm-1430.68 -6919.13c-23.57,5.64 -48.36,12.04 -73.99,19.02l14.35 19.19c19.68,-13.07 39.57,-25.8 59.64,-38.21zm-497.34 412.4c-29.07,9.09 -57.84,18.25 -86.18,27.39l37.22 33.41c16.62,-19.5 33.51,-38.66 50.61,-57.54l-1.65 -3.26zm-514.44 612.24l77.45 42.91c12.38,-24.99 25.02,-49.73 37.95,-74.2 0,0 -50.01,13.26 -115.4,31.29zm-175.21 724.05c3.75,-14.27 7.58,-28.49 11.48,-42.67 -305.57,57.13 -689.16,205.78 -689.16,205.78 -2.9,10.28 -5.76,20.6 -8.57,30.94 122.76,-40.14 345.96,-109.95 590.24,-171.06l84.64 21.31c3.71,-14.82 7.5,-29.58 11.37,-44.3zm-815.5 953.98c-1.64,21.73 -3.12,43.51 -4.44,65.35 289.15,-99.33 602.6,-152.73 602.6,-152.73l84.96 -3.69c1.67,-31.95 3.71,-63.79 6.03,-95.52 -400.96,65.24 -689.15,186.59 -689.15,186.59zm474.54 719.27c-250.68,54.86 -458.03,122.78 -458.03,122.78 3.61,32.04 7.58,64.1 11.87,96.2 342.45,-102.39 689.16,-163.84 689.16,-163.84 -0.92,-7.04 -1.83,-14.09 -2.72,-21.14 -3.26,-25.81 -6.32,-51.61 -9.15,-77.38 -78,11.88 -156.49,27.05 -231.13,43.38zm405.1 819.77c0,0 -498.46,91.22 -689.16,145.72 9.38,30.91 19.08,61.79 29.11,92.61 0,0 483.7,-96.19 689.16,-143.48 -10.03,-31.57 -19.74,-63.19 -29.11,-94.85zm-324.46 1020.65c404.56,-39.31 689.16,-124.51 689.16,-124.51 -15.03,-28.31 -29.82,-56.92 -44.4,-85.8l-79.23 32.42c0,0 -268.64,71.39 -599.14,114.85 11.07,21.17 22.27,42.18 33.61,63.04zm1022.09 554.11c-241.89,54.04 -461.28,83.71 -584.7,97.81 7.23,8.8 14.49,17.55 21.78,26.25 0,0 395.02,-37.77 689.15,-108.05 -9.75,-11.93 -19.46,-23.95 -29.12,-36.07 -9.41,-11.81 -18.79,-23.7 -28.12,-35.67l-68.99 55.73zm559.44 583.56c71.15,-11.91 120.61,-21.45 120.61,-21.45 -22.15,-17.35 -44.18,-35.05 -66.08,-53.14l-54.53 74.59zm662.6 316.63l-38.71 90.25c39.77,-5.85 75.69,-13.01 107.86,-21.1l1.49 -36.81c-23.61,-10.38 -47.16,-21.16 -70.64,-32.34z"/>
    <path class="fil17" d="M7219.46 6265.83l84.17 -14.81 -65.68 -34.25c-6.05,16.43 -12.21,32.78 -18.49,49.06zm-532.54 -4290.21l-66.89 21.6c4.4,6.19 8.8,12.39 13.19,18.62l53.7 -40.22zm-467.17 -556.27l-76.77 26.25c10.79,10.23 21.54,20.55 32.25,30.97l44.52 -57.22zm-537.95 -432.08l-95.12 33.94c20.83,12.41 41.57,25.13 62.23,38.15l32.89 -72.09zm-677.14 -253.34l4.11 29.97c22.25,6.69 44.45,13.76 66.61,21.14l19.13 -84.05 -89.85 32.94zm-526.41 -61.78l3.75 -92.72 -89.29 33.11 17.75 57.73c22.6,0.26 45.2,0.87 67.79,1.88zm-606.12 -34.83l-96.82 27.02 44.34 88.52 65.27 -18.29 -12.79 -97.25zm-665.28 298.07l44.35 59.34c25.63,-6.98 50.42,-13.38 73.99,-19.02l-20 -65.17 -9.66 -31.47c0,0 -376.67,122.72 -689.16,248.46l0.51 1.63c0.26,0.76 3.54,10.52 4.64,14.75 0.14,0.54 542.61,-192.52 595.33,-208.52zm-423.45 365c-385.72,120.69 -689.16,238.48 -689.16,238.48l24.2 46.63c422.34,-153.64 589.75,-200.05 589.75,-200.05l33.48 30.05c28.34,-9.14 57.11,-18.3 86.18,-27.39l-44.45 -87.72zm-1055.7 876.04c172.36,-67.72 366.54,-122.14 481.79,-152.04 62.51,-16.21 101.8,-25.21 101.8,-25.21l2.12 1.17c65.39,-18.03 115.4,-31.29 115.4,-31.29l-15.11 -19.78 -46 -60.21c-102.87,20.26 -209.75,50.23 -307.76,81.71 -211.3,67.88 -381.39,142.84 -381.39,142.84l12.24 15.64 36.91 47.17zm-267.18 711.08c0,0 383.59,-148.65 689.16,-205.78l-52.3 -45.33 -21.08 -18.27c0,0 -5.56,1.11 -16.63,3.58 -60.73,13.52 -287.27,67.84 -672.52,203.7l73.37 62.1zm-137.82 790.87c0,0 157.56,-72.25 689.15,-186.59l-81.81 -42.66c-393.76,79.73 -689.16,187.6 -689.16,187.6l81.82 41.65zm16.51 842.05c0,0 207.35,-67.92 458.03,-122.78 74.64,-16.33 153.13,-31.5 231.13,-43.38l-85.96 -18.61c0,0 -43.91,5.9 -122.24,21 -119.78,23.1 -320.05,67.71 -566.92,145.6l85.96 18.17zm701.03 -67.64c0,0 -346.71,61.45 -689.16,163.84l-80.23 28.4c0,0 264.78,-86.97 689.16,-163.14l80.23 -29.1zm-527.06 910.35c190.7,-54.5 689.16,-145.72 689.16,-145.72l-85.2 7.06c0,0 -288.77,35.68 -689.16,145.55l85.2 -6.89zm718.27 -50.87c-205.46,47.29 -689.16,143.48 -689.16,143.48l-70.93 51.87c0,0 399.34,-86.86 689.15,-142.23l70.94 -53.12zm335.59 801.29c0,0 -284.6,85.2 -689.16,124.51l-57.72 72.42c0,0 369.6,-46.23 689.16,-122.74l57.72 -74.19zm459.16 694.63c-294.13,70.28 -689.15,108.05 -689.15,108.05l-41.25 88.27c407.13,-26.09 689.16,-105.91 689.16,-105.91l41.24 -90.41zm432.56 568.44c0,0 -288.12,54.33 -570.47,83.8l-20.43 87.6c0,0 325.61,-23.05 689.16,-92.73l23 -101.01c0,0 -49.46,9.54 -120.61,21.45l-0.65 0.89zm732.4 384.89c-32.17,8.09 -68.09,15.25 -107.86,21.1 -195.31,28.73 -442.68,57.58 -581.66,73.17l-2.43 58.55c298.4,-11.3 689.16,-83.85 689.16,-83.85l2.79 -68.97zm582.92 260.36c24.23,-3.91 46.77,-7.91 67.01,-11.96l-13.72 -104.37c0,0 -62.27,10.4 -76.43,12.69l-12.81 60.84 -3.17 15.07c-13.84,2.36 -28.7,4.75 -44.4,7.14 -159.04,24.26 -404.37,49.61 -542.02,63.07l3.39 25.16c0,0 305.89,-23.6 537.62,-55.16 29.66,-4.04 58.1,-8.21 84.53,-12.48zm606.03 -115.51l-2.78 93.01c59.38,-5.16 101.19,-8.94 101.19,-8.94l-27.52 -89.68 -2.35 -7.64c-22.77,4.05 -45.59,7.73 -68.47,10.97l-0.07 2.28zm582.11 -179.75l9.37 68.44c58.25,-8.11 95.75,-13.52 95.75,-13.52l-43.5 -85.86c-20.45,10.7 -40.99,21.01 -61.62,30.94zm512.22 -344.77l11.79 38.32c59.35,-9.42 94.84,-15.53 94.84,-15.53l-54.25 -71.02c-17.23,16.35 -34.7,32.42 -52.38,48.23zm424.2 -481.78l99.8 -15.39 -61.59 -53.39c-13.46,21.22 -27.18,42.19 -41.13,62.96l2.92 5.82z"/>
    <path class="fil18" d="M5346.67 3492.91c0,0 19.89,823.72 304.38,1221.16 216.59,302.66 516.34,1127.76 74.92,2084.1 -0.72,1.58 -1.49,3.14 -2.27,4.63l133.95 -18.48c0.77,-1.51 1.53,-3.09 2.25,-4.68 435.99,-965.04 131.55,-1797.65 -86.75,-2103.07 -286.74,-401.05 -311.31,-1232.27 -311.31,-1232.27l-115.17 48.61z"/>
    <path class="fil19" d="M4617.78 3119.71c154.62,-48.31 359.48,-34.09 627.14,71.03l113.46 -51.36c-339.89,-134.4 -578.13,-121.55 -740.6,-19.67z"/>
    <path class="fil20" d="M2984.8 5188.19c-327.01,-889.02 -294.54,-1812.67 9.73,-2509.92 25.4,-58.22 52.71,-114.86 81.85,-169.78 24.31,-45.79 49.9,-90.37 76.73,-133.67 91.85,-148.16 198.38,-281.2 318.38,-395.58 14.65,-13.96 29.5,-27.65 44.55,-41.05 54.94,-48.93 112.54,-94.05 172.67,-135.08 6,-4.09 12.03,-8.15 18.08,-12.16 0.62,-0.41 1.24,-0.82 1.87,-1.24 -0.62,0.34 -1.24,0.68 -1.85,1.03 -5.99,3.3 -11.96,6.63 -17.91,10.01 -59.27,33.66 -116.39,71.05 -171.25,111.92 -14.85,11.06 -29.53,22.37 -44.04,33.93 -115.56,92.06 -220.57,199.94 -314.13,321.08 -25.65,33.2 -50.43,67.4 -74.34,102.54 -76.51,112.48 -144.05,234.63 -201.99,364.72 -307.72,690.82 -345.16,1605.62 -23.32,2486.13 215.25,588.91 556.51,1057.22 954.89,1367.66l132.73 -20.44c-400.14,-313.26 -744.05,-785.83 -962.65,-1380.1z"/>
    <path class="fil21" d="M5623.28 3044.1c35.4,75.37 -276.61,448.81 -276.61,448.81l115.17 -48.61c0,0 309.9,-376.84 274.07,-452.9 -11.3,-24.06 -183.97,54.13 -291.83,105.88 87.13,-38.01 171.52,-69.6 179.2,-53.18z"/>
    <path class="fil22" d="M5861.09 2500.29c82.75,-38.18 145.59,-110.58 185.18,-202.62l-108.73 58.95c-28.49,64.79 -68.65,119.76 -119.27,159.74 14.46,-4.24 28.75,-9.58 42.82,-16.07z"/>
    <path class="fil23" d="M6046.27 2297.67c250.29,285.3 462.66,642.32 613.13,1056.31 489.18,1345.83 151.42,2867.34 -801.75,3430.34 0.77,-1.51 1.53,-3.09 2.25,-4.68 435.99,-965.04 131.56,-1797.65 -86.75,-2103.07 -286.74,-401.06 -311.31,-1232.27 -311.31,-1232.27 0,0 309.9,-376.84 274.07,-452.9 -16.51,-35.16 -377.53,147.98 -377.53,147.98 -1257.1,-497.08 -1123.64,1020.12 -909.22,1605.66 -172.04,119.53 -377.56,1156.38 -501.71,1823.26 -400.14,-313.27 -744.05,-785.84 -962.65,-1380.11 -551.9,-1500.4 -79.87,-3099.47 994.58,-3542.27 407.53,-167.96 840.66,-142.81 1242.76,31.89 -28.92,130.16 -19.76,283.65 34.68,433.04 115.16,316.01 386.83,489.75 604.27,389.44 82.76,-38.18 145.59,-110.58 185.18,-202.62zm-526.89 -736.23c143.54,-61.53 319.37,54.96 393.79,259.61 74.4,204.58 20.24,422.38 -122.03,487.05 -143.51,65.24 -322.07,-49.81 -397.75,-257.55 -75.7,-207.83 -18.8,-427.06 125.99,-489.11z"/>
   </g>
   <g>
    <circle class="fil24" cx="2568.78" cy="6759.93" r="1342.41"/>
    <path class="fil25" d="M3731.33 7279.29c370.7,-642.06 150.71,-1463.06 -491.35,-1833.76 -642.07,-370.69 -1463.07,-150.71 -1833.76,491.36 -370.7,642.06 -150.71,1463.06 491.35,1833.76 642.06,370.69 1463.07,150.71 1833.76,-491.36z"/>
    <path class="fil26" d="M2732.64 5884.82l-37.45 950.84c-0.66,16.77 -14.43,30.01 -31.22,30.01l-194.08 0c-16.79,0 -30.58,-13.28 -31.21,-30.06l-35.81 -950.79 329.77 0zm-163.02 1446.54c-52.87,0 -96.59,-15.93 -130.82,-48.13 -34.58,-31.86 -51.86,-70.83 -51.86,-116.59 0,-47.79 17.62,-86.76 52.19,-117.26 34.92,-30.51 78.3,-45.43 130.49,-45.43 53.21,0 96.6,15.27 130.14,46.1 33.9,30.85 50.85,69.49 50.85,116.59 0,47.8 -16.95,87.11 -50.16,118.28 -33.56,30.85 -76.95,46.44 -130.83,46.44z"/>
    <path class="fil27" d="M3666.43 7241.82c172.51,-298.81 192,-648.25 109.24,-957.12 -82.76,-308.86 -283.36,-586.16 -582.16,-758.68 -298.81,-172.52 -639.26,-207.59 -948.12,-124.83 -308.87,82.76 -601.75,274.36 -774.27,573.17l0 0c177.48,-307.41 447.19,-522.77 764.96,-607.91 317.76,-85.15 668.01,-49.07 975.42,128.41 307.41,177.48 513.78,462.77 598.92,780.53 85.15,317.76 33.49,659.02 -143.99,966.43l0 0z"/>
    <path class="fil27" d="M2731.36 5851.8l-36.17 918.38c-0.66,16.77 -14.43,30.01 -31.22,30.01l-194.08 0c-16.79,0 -30.58,-13.28 -31.21,-30.06l-34.59 -918.38c-0.33,-8.8 2.61,-16.5 8.72,-22.84 6.11,-6.35 13.68,-9.57 22.5,-9.57l264.84 0c8.82,0 16.41,3.23 22.52,9.58 6.11,6.36 9.04,14.07 8.69,22.88zm-161.74 1414.08c-52.87,0 -96.59,-15.93 -130.82,-48.13 -34.58,-31.86 -51.86,-70.84 -51.86,-116.59 0,-47.79 17.62,-86.77 52.19,-117.27 34.92,-30.5 78.3,-45.41 130.49,-45.41 53.21,0 96.6,15.25 130.14,46.09 33.9,30.84 50.85,69.48 50.85,116.59 0,47.79 -16.95,87.11 -50.16,118.29 -33.56,30.84 -76.95,46.43 -130.83,46.43z"/>
   </g>
   <rect class="fil28" x="-2.53" y="2.55" width="8669.87" height="8669.87"/>
  </g>
 </g>
</svg>
