<svg width="249" height="249" viewBox="0 0 249 249" fill="none" xmlns="http://www.w3.org/2000/svg">
<g clip-path="url(#clip0_45_1471)">
<path d="M249 0H0V249H249V0Z" fill="url(#paint0_linear_45_1471)"/>
<path fill-rule="evenodd" clip-rule="evenodd" d="M122.042 131.16C122.042 132.516 123.146 133.618 124.5 133.618C125.856 133.618 126.958 132.516 126.958 131.16C126.958 129.804 125.856 128.702 124.5 128.702C123.146 128.702 122.042 129.804 122.042 131.16ZM118.078 131.16C118.078 127.618 120.958 124.738 124.5 124.738C128.042 124.738 130.922 127.618 130.922 131.16C130.922 134.006 129.051 136.397 126.482 137.237V142.339H122.518V137.237C119.949 136.397 118.078 134.006 118.078 131.16ZM142.339 120.536H106.661V146.304H142.339V140.357H136.393V136.393H142.339V130.446H136.393V126.482H142.339V120.536ZM112.607 116.571H136.391L136.393 106.661C136.395 101.475 130.73 96.754 124.508 96.75H124.502C121.471 96.75 118.411 97.8878 116.102 99.8719C113.882 101.779 112.607 104.254 112.607 106.663V116.571ZM140.357 106.663L140.355 116.571H144.321C145.418 116.571 146.304 117.459 146.304 118.554V148.286C146.304 149.38 145.418 150.268 144.321 150.268H104.679C103.582 150.268 102.696 149.38 102.696 148.286V118.554C102.696 117.459 103.582 116.571 104.679 116.571H108.643V106.661C108.645 103.097 110.421 99.527 113.517 96.865C116.536 94.2723 120.538 92.7857 124.502 92.7857H124.508C132.954 92.7897 140.359 99.2733 140.357 106.663ZM83.2853 154.329L86.4984 152.006C81.0772 144.514 78.0802 135.723 77.7135 126.482H82.875V122.518H77.7194C78.1139 113.333 81.1069 104.593 86.4984 97.1425L83.2853 94.8174C77.4023 102.95 74.1516 112.492 73.7552 122.518H69V126.482H73.7492C74.1179 136.563 77.3726 146.157 83.2853 154.329ZM151.929 162.573C144.458 167.98 135.695 170.973 126.482 171.356V166.125H122.518V171.356C113.305 170.975 104.54 167.982 97.0652 162.573L94.7441 165.784C102.895 171.685 112.464 174.936 122.518 175.32V180H126.482V175.32C136.536 174.936 146.101 171.685 154.252 165.784L151.929 162.573ZM97.0652 86.5737C104.54 81.1664 113.305 78.1734 122.518 77.7928V82.875H126.482V77.7928C135.695 78.1734 144.458 81.1664 151.929 86.5737L154.252 83.3626C146.101 77.4638 136.536 74.213 126.482 73.8285V69H122.518V73.8285C112.464 74.2111 102.895 77.4618 94.7441 83.3626L97.0652 86.5737ZM175.241 122.518C174.844 112.492 171.594 102.95 165.709 94.8174L162.496 97.1425C167.889 104.593 170.882 113.333 171.277 122.518H166.125V126.482H171.283C170.914 135.723 167.919 144.514 162.496 152.006L165.709 154.329C171.623 146.157 174.876 136.563 175.247 126.482H180V122.518H175.241ZM156.979 94.8947L172.519 79.3547L169.717 76.552L154.177 92.092L156.979 94.8947ZM92.0166 154.252L76.4766 169.792L79.2794 172.595L94.8194 157.055L92.0166 154.252ZM102.034 99.2336L72.6174 69.8186L69.8147 72.6214L99.2316 102.036L102.034 99.2336ZM152.633 149.832L179.179 176.379L176.377 179.181L149.83 152.635L152.633 149.832Z" fill="white"/>
</g>
<defs>
<linearGradient id="paint0_linear_45_1471" x1="0" y1="24900" x2="24900" y2="0" gradientUnits="userSpaceOnUse">
<stop stop-color="#BD0816"/>
<stop offset="1" stop-color="#FF5252"/>
</linearGradient>
<clipPath id="clip0_45_1471">
<rect width="249" height="249" fill="white"/>
</clipPath>
</defs>
</svg>
