<svg width="247" height="247" viewBox="0 0 247 247" fill="none" xmlns="http://www.w3.org/2000/svg">
<path d="M247 0H0V247H247V0Z" fill="url(#paint0_linear_45_1498)"/>
<path fill-rule="evenodd" clip-rule="evenodd" d="M98.6132 131.337L105.368 124.632C105.791 124.212 106.03 123.641 106.032 123.045C106.034 122.449 105.798 121.876 105.377 121.453L98.6222 114.672L95.4297 117.841L98.3273 120.752H88.0202V125.248H98.3633L95.4387 128.15L98.6132 131.337ZM150.162 131.542L159.168 124.794C159.731 124.369 160.066 123.704 160.066 122.998C160.066 122.29 159.731 121.622 159.166 121.197L150.16 114.458L147.458 118.055L151.061 120.752H142.055V125.248H151.058L147.456 127.945L150.162 131.542ZM113.218 123C113.218 127.772 112.397 132.272 110.861 136.188C114.911 134.624 119.48 133.841 124.043 133.841C128.607 133.841 133.175 134.624 137.223 136.188C135.69 132.272 134.868 127.772 134.868 123C134.868 118.228 135.69 113.73 137.223 109.812C129.125 112.939 118.962 112.939 110.861 109.812C112.397 113.73 113.218 118.228 113.218 123ZM102.189 144.82C101.75 144.382 101.529 143.806 101.529 143.231C101.529 142.655 101.75 142.08 102.189 141.642C106.275 137.562 108.715 130.591 108.715 123C108.715 115.409 106.275 108.438 102.189 104.358C101.75 103.92 101.529 103.345 101.529 102.769C101.529 102.194 101.75 101.618 102.189 101.18C103.069 100.301 104.492 100.301 105.372 101.18C114.096 109.89 133.99 109.89 142.715 101.18C143.595 100.301 145.018 100.301 145.898 101.18C146.337 101.618 146.558 102.194 146.558 102.769C146.558 103.345 146.337 103.92 145.898 104.358C141.812 108.438 139.371 115.409 139.371 123C139.371 130.591 141.812 137.562 145.898 141.642C146.337 142.08 146.558 142.655 146.558 143.231C146.558 143.806 146.337 144.382 145.898 144.82C145.459 145.258 144.883 145.479 144.306 145.479C143.73 145.479 143.154 145.258 142.715 144.82C133.99 136.11 114.096 136.11 105.372 144.82C104.492 145.699 103.069 145.699 102.189 144.82ZM182.502 123.011C182.502 120.916 181.685 118.947 180.201 117.466C178.67 115.935 176.657 115.173 174.647 115.173C172.636 115.173 170.624 115.935 169.093 117.466C166.028 120.523 166.028 125.497 169.093 128.557C172.155 131.614 177.135 131.616 180.201 128.557C181.685 127.075 182.502 125.106 182.502 123.011ZM183.385 131.735C180.976 134.14 177.812 135.343 174.647 135.343C171.481 135.343 168.318 134.14 165.909 131.735C161.089 126.925 161.089 119.098 165.909 114.287C170.729 109.472 178.569 109.477 183.385 114.287C188.205 119.098 188.205 126.925 183.385 131.735ZM81.205 123.063C81.205 120.968 80.3878 118.999 78.9041 117.517C77.4204 116.036 75.4481 115.22 73.3498 115.22C71.2537 115.22 69.2814 116.036 67.7954 117.517C66.3117 118.999 65.4967 120.968 65.4967 123.063C65.4967 125.156 66.3117 127.125 67.7954 128.608C70.7651 131.569 75.9367 131.569 78.9041 128.608C80.3878 127.125 81.205 125.156 81.205 123.063ZM82.0876 131.787C79.6786 134.192 76.5153 135.395 73.3498 135.395C70.1865 135.395 67.0232 134.192 64.6119 131.787C59.796 126.976 59.796 119.149 64.6119 114.339C69.4322 109.529 77.2695 109.529 82.0876 114.339C86.9057 119.149 86.9057 126.976 82.0876 131.787ZM157.516 156.588C148.528 165.563 136.575 170.504 123.863 170.504C111.147 170.504 99.1964 165.563 90.2086 156.588C84.0441 150.435 80.6512 143.082 78.8906 138L74.6353 139.47C76.5513 145 80.2549 153.009 87.025 159.766C96.8639 169.592 109.945 175 123.863 175C137.779 175 150.86 169.592 160.699 159.766C166.384 154.095 170.912 146.884 173.454 139.463L169.194 138.007C166.87 144.791 162.723 151.391 157.516 156.588ZM78.8883 108.002L74.6376 106.528C77.3618 98.696 81.7657 91.4848 87.0385 86.2226C96.8729 76.4061 109.949 71 123.863 71C137.777 71 150.854 76.4061 160.686 86.2226C166.235 91.7636 170.889 99.1636 173.449 106.528L169.198 108.002C166.85 101.259 162.588 94.479 157.502 89.4011C148.521 80.4321 136.573 75.4957 123.863 75.4957C111.152 75.4957 99.2054 80.4321 90.2221 89.4011C85.422 94.1958 81.3964 100.802 78.8883 108.002Z" fill="white"/>
<defs>
<linearGradient id="paint0_linear_45_1498" x1="0" y1="24700" x2="24700" y2="0" gradientUnits="userSpaceOnUse">
<stop stop-color="#B0084D"/>
<stop offset="1" stop-color="#FF4F8B"/>
</linearGradient>
</defs>
</svg>
