<svg width="241" height="241" viewBox="0 0 241 241" fill="none" xmlns="http://www.w3.org/2000/svg">
<g clip-path="url(#clip0_45_1492)">
<path d="M241 0H0V241H241V0Z" fill="url(#paint0_linear_45_1492)"/>
<path fill-rule="evenodd" clip-rule="evenodd" d="M136.5 153.21H165.286V157.639H136.5V162.068H132.071V157.639H123.214V153.21H132.071V150.995H136.5V153.21ZM145.357 139.922H165.286V144.352H145.357V148.781H140.929V144.352H123.214V139.922H140.929V137.708H145.357V139.922ZM156.429 126.635H165.286V131.064H156.429V135.493H152V131.064H123.214V126.635H152V124.42H156.429V126.635ZM78.9286 135.493H98.8571V139.922H78.9286C76.1496 139.922 73.1803 139.087 70.9859 137.69C66.5131 134.857 59 128.227 59 115.663C59 100.427 69.3296 94.8349 75.3414 92.875L75.2219 90.8464C75.2174 78.2962 83.521 65.427 94.5304 60.783C107.424 55.3018 121.08 58.0169 131.064 68.0469C134.162 71.1496 136.713 74.9344 138.666 79.326C142.587 76.0594 147.926 74.941 152.886 76.5688C159.19 78.6372 163.113 84.4639 163.574 92.308C169.858 93.8118 183 98.9829 183 115.863C183 116.494 182.976 117.103 182.951 117.685L178.525 117.568C178.547 116.977 178.571 116.432 178.571 115.863C178.571 100.952 166.267 97.2068 160.977 96.2899C160.379 96.1858 159.852 95.8448 159.515 95.3421C159.181 94.8438 159.064 94.2325 159.188 93.6457C159.123 87.0439 156.331 82.36 151.504 80.7765C147.179 79.3525 142.428 80.9227 139.675 84.6698C139.188 85.3276 138.389 85.6708 137.567 85.5468C136.757 85.4294 136.079 84.8714 135.805 84.0985C133.96 78.9096 131.31 74.5623 127.929 71.1762C119.264 62.4705 107.42 60.1142 96.2576 64.8623C86.9399 68.791 79.646 80.1476 79.646 90.7157L79.8652 94.3787C79.9272 95.4373 79.2297 96.3918 78.2001 96.6531C72.6843 98.0572 63.4286 102.393 63.4286 115.663C63.4286 125.583 68.827 131.082 73.3596 133.949C74.8543 134.904 76.9866 135.493 78.9286 135.493ZM178.571 147.275L174.665 147.051C173.618 146.996 172.619 147.718 172.38 148.776C171.632 152.094 170.33 155.239 168.51 158.122C167.932 159.039 168.1 160.237 168.91 160.959L171.827 163.559L164.562 170.827L161.969 167.919C161.247 167.107 160.044 166.943 159.134 167.521C156.251 169.341 153.105 170.646 149.779 171.396C148.725 171.636 147.994 172.603 148.059 173.684L148.28 177.571H138.006L138.227 173.68C138.291 172.599 137.561 171.631 136.507 171.392C133.19 170.643 130.043 169.337 127.156 167.514C126.241 166.934 125.041 167.1 124.321 167.913L121.722 170.825L114.459 163.559L117.371 160.963C118.179 160.241 118.347 159.043 117.769 158.129C115.951 155.245 114.649 152.1 113.901 148.776C113.664 147.718 112.606 146.996 111.616 147.051L107.714 147.275V136.999L111.629 137.223C112.659 137.28 113.673 136.556 113.914 135.5C114.665 132.189 115.969 129.049 117.789 126.167C118.367 125.25 118.197 124.05 117.391 123.33L114.459 120.715L121.724 113.449L124.339 116.379C125.061 117.185 126.261 117.351 127.171 116.775C130.05 114.961 133.19 113.661 136.507 112.913C137.561 112.674 138.291 111.706 138.227 110.625L138.006 106.703H148.28L148.059 110.63C147.994 111.71 148.725 112.676 149.779 112.915C153.089 113.666 156.227 114.966 159.11 116.782C160.02 117.36 161.222 117.191 161.942 116.385L164.562 113.449L171.827 120.715L168.902 123.324C168.096 124.046 167.925 125.244 168.503 126.161C170.323 129.042 171.627 132.184 172.376 135.5C172.615 136.554 173.618 137.28 174.661 137.223L178.571 136.999V147.275ZM180.659 132.444L176.229 132.696C175.509 130.16 174.497 127.722 173.211 125.414L176.525 122.458C176.979 122.053 177.247 121.479 177.265 120.868C177.283 120.261 177.048 119.67 176.616 119.24L166.036 108.659C165.607 108.227 164.993 107.979 164.409 108.012C163.798 108.03 163.224 108.295 162.819 108.749L159.852 112.076C157.547 110.791 155.113 109.784 152.582 109.062L152.835 104.615C152.87 104.006 152.653 103.41 152.232 102.967C151.816 102.524 151.234 102.274 150.625 102.274H135.661C135.052 102.274 134.469 102.524 134.053 102.967C133.632 103.41 133.415 104.006 133.451 104.615L133.703 109.057C131.168 109.777 128.732 110.787 126.429 112.069L123.467 108.749C123.061 108.295 122.488 108.03 121.877 108.012C121.25 107.983 120.679 108.227 120.249 108.659L109.669 119.24C109.238 119.67 109.003 120.261 109.021 120.868C109.038 121.477 109.306 122.053 109.76 122.458L113.082 125.421C111.795 127.729 110.783 130.162 110.061 132.696L105.626 132.444C105.033 132.404 104.422 132.627 103.979 133.044C103.536 133.462 103.286 134.045 103.286 134.654V149.62C103.286 150.229 103.536 150.812 103.979 151.23C104.422 151.646 105.035 151.863 105.626 151.83L110.046 151.578C110.766 154.12 111.775 156.561 113.062 158.871L109.76 161.814C109.306 162.219 109.038 162.795 109.021 163.404C109.003 164.013 109.238 164.604 109.669 165.034L120.249 175.615C120.679 176.047 121.306 176.284 121.877 176.264C122.488 176.246 123.064 175.978 123.467 175.524L126.412 172.22C128.721 173.511 131.164 174.526 133.701 175.248L133.451 179.659C133.415 180.266 133.632 180.862 134.053 181.307C134.469 181.75 135.052 182 135.661 182H150.625C151.234 182 151.816 181.75 152.235 181.307C152.653 180.862 152.87 180.266 152.835 179.659L152.585 175.252C155.127 174.528 157.569 173.516 159.878 172.227L162.819 175.524C163.222 175.978 163.798 176.246 164.409 176.264C165 176.291 165.607 176.047 166.036 175.615L176.616 165.034C177.048 164.604 177.283 164.013 177.265 163.404C177.247 162.795 176.979 162.219 176.523 161.814L173.217 158.866C174.504 156.556 175.513 154.116 176.235 151.578L180.659 151.83C181.257 151.863 181.864 151.646 182.307 151.23C182.75 150.812 183 150.229 183 149.62V134.654C183 134.045 182.75 133.462 182.307 133.044C181.864 132.627 181.26 132.406 180.659 132.444Z" fill="white"/>
</g>
<defs>
<linearGradient id="paint0_linear_45_1492" x1="0" y1="24100" x2="24100" y2="0" gradientUnits="userSpaceOnUse">
<stop stop-color="#B0084D"/>
<stop offset="1" stop-color="#FF4F8B"/>
</linearGradient>
<clipPath id="clip0_45_1492">
<rect width="241" height="241" fill="white"/>
</clipPath>
</defs>
</svg>
