<svg width="190" height="182" viewBox="0 0 190 182" fill="none" xmlns="http://www.w3.org/2000/svg">
<g clip-path="url(#clip0_6_436)" filter="url(#filter0_d_6_436)">
<path fill-rule="evenodd" clip-rule="evenodd" d="M81.3315 18.5066L81.6021 19.336C82.0969 19.336 82.5917 19.3508 83.0864 19.373L83.1715 17.4698C85.3362 17.5809 87.5009 17.8327 89.6579 18.2252C91.2582 18.514 92.8509 18.8769 94.4357 19.3138L94.7218 21.254C95.2088 21.3948 95.6959 21.5355 96.183 21.691L96.6004 19.9655C100.288 21.1504 103.922 22.7204 107.439 24.668L107.378 26.5268C107.834 26.7786 108.29 27.0452 108.746 27.3118L109.465 25.8307C112.913 27.8969 116.245 30.3185 119.43 33.0586L119.044 34.7619C119.461 35.1247 119.871 35.4876 120.281 35.8579L121.255 34.6878C124.324 37.5093 127.231 40.6493 129.945 44.0781L129.264 45.5518C129.62 45.9962 129.968 46.4553 130.308 46.9144L131.483 46.0924C134.05 49.536 136.423 53.2462 138.573 57.2156L137.637 58.4153C137.916 58.9263 138.186 59.4447 138.449 59.9705L139.771 59.5188C140.768 61.4887 141.712 63.5104 142.593 65.5988C143.474 67.6872 144.278 69.7829 145.005 71.8935L143.861 72.76C144.054 73.3228 144.24 73.8782 144.417 74.4411L145.832 74.3818C147.208 78.7363 148.268 83.1278 149.01 87.5045L147.703 88.0081C147.804 88.5932 147.889 89.1782 147.981 89.7632L149.419 90.1039C150.061 94.5917 150.378 99.0573 150.386 103.456L148.971 103.567C148.971 104.152 148.963 104.73 148.948 105.308L150.355 106.033C150.239 110.469 149.798 114.839 149.048 119.075L147.587 118.778C147.487 119.334 147.378 119.889 147.262 120.437L148.569 121.533C147.688 125.747 146.497 129.82 144.99 133.708L143.552 133.005C143.351 133.516 143.142 134.019 142.933 134.523L144.077 135.959C142.454 139.758 140.529 143.358 138.302 146.697L136.949 145.601C136.655 146.038 136.354 146.468 136.045 146.89L136.965 148.608C134.653 151.8 132.048 154.74 129.148 157.354L127.958 155.895C127.579 156.229 127.2 156.562 126.814 156.88L127.448 158.813C125.979 160.035 124.44 161.175 122.832 162.227C121.216 163.286 119.57 164.227 117.892 165.071L116.941 163.308C116.493 163.53 116.044 163.738 115.588 163.945L115.89 166.019C115.565 166.159 115.24 166.3 114.915 166.441C116.956 167.055 118.882 167.833 116.725 168.159C108.932 169.314 99.1517 170.684 91.0186 169.759L90.9413 169.233C89.5728 169.359 88.6915 169.44 88.6915 169.44C84.6713 168.796 80.6589 167.67 76.716 166.085L76.7701 164.856C75.3244 165.012 74.4121 165.1 74.4121 165.1C70.4615 163.323 66.596 161.079 62.8773 158.391L63.3257 156.554C62.4521 156.643 61.5785 156.717 60.728 156.784C57.079 153.94 53.6 150.667 50.3452 146.986L51.2497 145.135C51.0641 144.928 50.8863 144.713 50.7008 144.505L50.7704 144.587C49.3246 144.742 48.4819 144.809 48.4819 144.809C45.374 141.047 42.4981 136.907 39.9236 132.42L41.1915 130.901C40.9441 130.457 40.689 130.013 40.4493 129.561V129.576C39.8076 129.657 39.1505 129.731 38.4856 129.805C37.2873 127.561 36.1585 125.236 35.1148 122.837C34.0711 120.437 33.1279 118.008 32.2853 115.564L33.8392 114.476C33.6227 113.831 33.4063 113.18 33.1975 112.528L31.3266 112.676C29.7572 107.626 28.613 102.531 27.8862 97.4577L29.6412 96.8578C29.5484 96.1839 29.4634 95.51 29.3784 94.8361L27.492 94.451C26.9121 89.2893 26.7652 84.1794 27.0204 79.188C27.6389 78.9585 28.2805 78.7363 28.9145 78.529C28.9454 78.0698 28.9763 77.6107 29.015 77.1589L27.2214 76.2851C27.6389 71.3233 28.4661 66.5023 29.6799 61.9034C29.6799 61.9034 30.4762 61.6368 31.8446 61.2073L31.8214 61.2887C31.891 61.0443 31.9605 60.7999 32.0301 60.5556L30.4221 59.2522C31.775 54.7718 33.499 50.521 35.571 46.5664C36.3054 46.2405 37.0863 45.9295 37.8826 45.6259L36.808 44.3077C38.9727 40.5456 41.4698 37.0872 44.2685 33.9843C45.0261 33.7177 45.7529 33.4585 46.4487 33.2215L45.9152 32.244C48.7371 29.3854 51.8373 26.8749 55.1926 24.7643C55.1926 24.7643 55.9811 24.4459 57.249 23.9571L57.1331 23.6164C58.7953 22.6759 60.5116 21.8317 62.2897 21.0837C68.5365 18.4695 78.4478 15.2407 82.7463 13.8929L81.2928 18.5066H81.3315Z" fill="url(#paint0_linear_6_436)"/>
<path fill-rule="evenodd" clip-rule="evenodd" d="M85.3748 29.5409C95.5799 25.5863 106.427 26.4602 116.384 31.0072C117.212 29.9556 118.248 29.141 119.469 28.6448C124.247 26.712 130.084 30.437 132.55 36.9465C133.393 39.1608 133.741 41.4195 133.648 43.5227C140.065 50.2322 145.5 58.7856 149.296 68.7832C160.939 99.472 152.983 134.256 130.308 147.275C106.117 161.161 74.5899 145.276 61.3542 110.832C48.0721 76.2702 59.5374 39.5533 85.3825 29.5409H85.3748Z" fill="#D1D1D1"/>
<path fill-rule="evenodd" clip-rule="evenodd" d="M83.7667 15.7517C84.246 15.6184 84.7176 15.4851 85.197 15.3666L84.9186 13.3227C88.6141 12.434 92.3482 12.0193 96.0824 12.0415L96.7163 14.0114C97.2111 14.0114 97.7059 14.0262 98.2007 14.0484L98.2857 12.1007C100.45 12.2118 102.615 12.471 104.772 12.8709C106.373 13.1671 107.965 13.5374 109.55 13.9892L109.836 15.9739C110.323 16.1146 110.81 16.2627 111.297 16.4182L111.715 14.6557C115.402 15.8628 119.036 17.4772 122.554 19.4693L122.492 21.3726C122.948 21.6317 123.404 21.9058 123.86 22.1798L124.579 20.669C128.027 22.787 131.359 25.2605 134.545 28.0746L134.158 29.8149C134.576 30.1852 134.985 30.5555 135.395 30.9406L136.369 29.7409C139.438 32.6291 142.345 35.8505 145.059 39.3533L144.379 40.8641C144.734 41.3232 145.082 41.7898 145.422 42.2563L146.598 41.4121C149.164 44.9372 151.538 48.7436 153.687 52.8019L152.751 54.0238C153.03 54.5496 153.3 55.0828 153.563 55.616L154.885 55.1569C155.883 57.1712 156.826 59.2522 157.707 61.385C158.588 63.5178 159.393 65.6728 160.119 67.8279L158.975 68.7165C159.168 69.2942 159.354 69.8644 159.532 70.4421L160.946 70.3828C162.323 74.8484 163.382 79.3436 164.132 83.824L162.825 84.335C162.926 84.9348 163.011 85.5347 163.103 86.1345L164.541 86.4826C165.183 91.0741 165.5 95.6507 165.508 100.161L164.093 100.272C164.093 100.872 164.085 101.464 164.07 102.057L165.477 102.805C165.361 107.352 164.92 111.825 164.17 116.164L162.709 115.861C162.609 116.431 162.5 116.994 162.384 117.564L163.691 118.69C162.81 123.007 161.619 127.184 160.112 131.161L158.674 130.442C158.473 130.961 158.271 131.479 158.055 131.99L159.199 133.456C157.576 137.352 155.651 141.032 153.424 144.454L152.071 143.335C151.777 143.78 151.476 144.224 151.167 144.654L152.087 146.409C149.775 149.682 147.17 152.689 144.27 155.362L143.08 153.874C142.701 154.214 142.322 154.555 141.936 154.888L142.57 156.873C141.101 158.124 139.562 159.294 137.954 160.368C136.338 161.449 134.692 162.42 133.014 163.279L132.063 161.479C131.615 161.701 131.166 161.923 130.71 162.131L131.012 164.256C127.478 165.863 123.829 166.996 120.111 167.67L119.454 165.626C118.951 165.708 118.456 165.789 117.954 165.856L117.884 168.018C114.011 168.522 110.076 168.537 106.141 168.077L105.839 165.885C105.313 165.819 104.795 165.745 104.27 165.663L103.813 167.752C99.7933 167.093 95.7809 165.937 91.838 164.315L91.9308 162.094C91.4128 161.879 90.8948 161.649 90.3845 161.412L89.5341 163.308C85.5835 161.486 81.718 159.183 77.9993 156.436L78.5018 154.318C78.0147 153.955 77.5354 153.585 77.0561 153.2L75.85 154.784C72.2009 151.874 68.7219 148.519 65.4671 144.75L66.3717 142.854C65.9465 142.358 65.529 141.854 65.1192 141.351L63.6039 142.521C60.496 138.67 57.6201 134.426 55.0456 129.835L56.3135 128.28C55.9811 127.687 55.6564 127.087 55.3394 126.48L53.5999 127.162C52.4015 124.858 51.2728 122.481 50.2291 120.023C49.1854 117.564 48.2422 115.076 47.3995 112.573L48.9535 111.454C48.737 110.795 48.5205 110.129 48.3118 109.462L46.4409 109.61C44.8714 104.434 43.7272 99.2128 43.0005 94.0215L44.7555 93.4142C44.6627 92.7255 44.5777 92.0368 44.4926 91.3481L42.6062 90.9556C42.0264 85.668 41.8795 80.4322 42.1346 75.3223L43.9978 75.2483C44.0365 74.5744 44.0829 73.9079 44.1293 73.2414L42.3356 72.3453C42.7531 67.2651 43.5803 62.3255 44.7941 57.6156L46.6496 58.0599C46.8119 57.4452 46.9743 56.838 47.1521 56.2307L45.544 54.8977C46.897 50.3062 48.621 45.9517 50.693 41.9009L52.4402 42.8266C52.7108 42.3008 52.9891 41.7824 53.2752 41.2714L51.9377 39.5903C54.1024 35.7394 56.5995 32.1921 59.3982 29.0151L60.9444 30.3481C61.3078 29.9408 61.6789 29.5335 62.05 29.141L61.0372 27.2304C63.8591 24.2978 66.9592 21.728 70.3146 19.5656L71.5979 21.217C72.0309 20.943 72.4638 20.6764 72.9045 20.4172L72.2551 18.3881C73.9173 17.4254 75.6336 16.5589 77.4117 15.7961C79.1821 15.0408 80.968 14.4039 82.7694 13.8781L83.7435 15.7369L83.7667 15.7517Z" fill="#E7E7E4"/>
<path fill-rule="evenodd" clip-rule="evenodd" d="M83.7745 31.0813C93.9254 27.2008 104.703 28.0598 114.591 32.518C115.41 31.4886 116.446 30.6888 117.66 30.2C122.415 28.3042 128.205 31.9626 130.641 38.3462C131.468 40.5234 131.808 42.7377 131.715 44.8039C138.07 51.3875 143.451 59.7854 147.201 69.5978C158.689 99.7238 150.695 133.871 128.128 146.653C104.053 160.287 72.7576 144.691 59.6998 110.877C46.5955 76.9516 58.0762 40.9011 83.7899 31.0739L83.7745 31.0813Z" fill="#F6F6F6"/>
<path d="M132.558 52.1724C136.972 57.5933 140.722 64.0658 143.482 71.39C153.154 97.0356 147.587 125.747 130.478 139.388L128.422 142.358L125.484 142.743C125.484 142.743 125.515 142.676 125.53 142.647C135.202 122.57 128.638 105.248 123.891 98.8944C117.66 90.5483 117.219 73.2562 117.219 73.2562C117.219 73.2562 124.054 65.4137 123.281 63.8363C123.056 63.3771 119.833 64.7101 117.475 65.7691V65.8358L114.993 66.917C87.5087 56.5788 90.2455 88.1415 94.8687 100.316C91.7917 102.338 88.1504 116.986 85.3904 129.842L86.5578 137.811L83.6509 138.24C74.9224 131.723 67.4387 121.896 62.7227 109.529C50.8091 78.3142 61.3543 45.0483 84.9574 35.8357C93.9101 32.3403 103.396 32.8661 112.186 36.5022C111.537 39.2127 111.715 42.4045 112.89 45.5074C115.372 52.0836 121.309 55.6975 126.087 53.6091C127.904 52.8167 129.288 51.306 130.169 49.3954L132.55 48.1586V52.1502L132.558 52.1724Z" fill="#C3EEC6"/>
<path fill-rule="evenodd" clip-rule="evenodd" d="M121.464 33.8584C123.845 34.3249 126.157 36.4355 127.316 39.5014C128.414 42.4192 128.19 45.4629 126.937 47.5217L127.239 48.2697L125.159 49.3435C124.974 49.4546 124.788 49.5508 124.587 49.6397C121.433 50.9949 117.536 48.6029 115.905 44.2855C114.374 40.242 115.395 35.9838 118.139 34.399L121.015 32.7327L121.472 33.8658L121.464 33.8584Z" fill="#F38B89"/>
<path d="M132.558 48.1808C138.039 54.172 142.693 61.6664 145.995 70.3532C156.718 98.6056 149.311 130.546 128.422 142.365C128.437 142.336 128.453 142.299 128.468 142.269C138.024 122.007 131.352 104.53 126.566 98.1242C120.281 89.704 119.747 72.2564 119.747 72.2564C119.747 72.2564 126.535 64.3472 125.755 62.7476C125.391 62.0071 117.482 65.8506 117.482 65.8506C89.9362 55.4161 92.8586 87.2676 97.5591 99.5535C93.7863 102.064 89.2868 123.829 86.5655 137.826C77.7984 131.249 70.2605 121.326 65.4672 108.855C53.3758 77.3589 63.72 43.7893 87.2613 34.4953C96.1907 30.9702 105.685 31.496 114.498 35.1618C113.864 37.8944 114.065 41.1159 115.256 44.2484C117.776 50.8839 123.737 54.5274 128.499 52.4242C130.316 51.6244 131.692 50.1063 132.558 48.1734V48.1808Z" fill="#CFF3D2"/>
<path fill-rule="evenodd" clip-rule="evenodd" d="M121.015 32.7253C124.162 31.4368 128.012 33.8806 129.643 38.1759C131.274 42.4711 130.084 47.0404 126.968 48.403C123.822 49.773 119.91 47.3588 118.255 42.9969C116.593 38.635 117.845 34.0287 121.015 32.7327V32.7253Z" fill="#FEB1B2"/>
<path fill-rule="evenodd" clip-rule="evenodd" d="M84.9111 13.3227L82.7927 13.8929L83.7668 15.7517L85.1971 15.3666L84.9111 13.3227Z" fill="#C5C5C3"/>
<path fill-rule="evenodd" clip-rule="evenodd" d="M75.8655 154.777C77.4272 154.525 78.5095 154.325 78.5095 154.325C78.0225 153.962 77.5431 153.592 77.0638 153.207L75.8655 154.77V154.777Z" fill="#B5B5B2"/>
<path fill-rule="evenodd" clip-rule="evenodd" d="M75.8578 154.799C75.8578 154.799 69.5415 155.94 63.3566 156.562L62.9082 158.398C62.9082 158.398 70.044 157.917 78.0148 156.451L78.5173 154.333C78.5173 154.333 77.435 154.533 75.8733 154.784L75.8578 154.807V154.799Z" fill="#C5C5C3"/>
<path fill-rule="evenodd" clip-rule="evenodd" d="M90.3924 161.427L89.542 163.323C90.4156 163.197 91.2042 163.049 91.9077 162.879L91.9386 162.109C91.4207 161.894 90.9027 161.664 90.3924 161.427Z" fill="#B5B5B2"/>
<path fill-rule="evenodd" clip-rule="evenodd" d="M91.9077 162.879C91.2042 163.049 90.4156 163.197 89.542 163.323C85.259 163.923 79.8394 164.53 76.7934 164.856L76.7393 166.085C83.2798 165.848 91.8459 164.323 91.8459 164.323L91.9077 162.871V162.879Z" fill="#C5C5C3"/>
<path fill-rule="evenodd" clip-rule="evenodd" d="M63.6117 142.528C64.3848 142.365 65.0961 142.225 65.7378 142.106C65.5291 141.862 65.328 141.61 65.1193 141.358L63.604 142.528H63.6117Z" fill="#EBEBEB"/>
<path fill-rule="evenodd" clip-rule="evenodd" d="M63.6117 142.528C58.3082 143.661 53.4994 144.283 50.8013 144.58C50.9559 144.765 51.1182 144.95 51.2806 145.128C51.2806 145.128 59.9395 144.335 66.3795 142.861C66.163 142.61 65.9543 142.358 65.7378 142.106C65.5291 141.862 65.328 141.61 65.1193 141.358L63.604 142.528H63.6117Z" fill="#B5B5B2"/>
<path fill-rule="evenodd" clip-rule="evenodd" d="M66.3718 142.869C59.9241 144.342 51.2729 145.135 51.2729 145.135L50.3684 146.986C59.2901 146.438 65.475 144.765 65.475 144.765L66.3796 142.869H66.3718Z" fill="#C5C5C3"/>
<path fill-rule="evenodd" clip-rule="evenodd" d="M41.2069 130.894C50.0745 130.072 56.3135 128.28 56.3135 128.28C55.981 127.687 55.6563 127.087 55.3394 126.48L53.5999 127.162C53.5999 127.162 47.7165 128.657 40.4724 129.576C40.7121 130.02 40.9595 130.464 41.2069 130.901V130.894Z" fill="#B5B5B2"/>
<path fill-rule="evenodd" clip-rule="evenodd" d="M56.3135 128.287C56.3135 128.287 50.0745 130.079 41.2069 130.901L39.939 132.419C39.939 132.419 48.0412 131.449 55.0456 129.842L56.3135 128.287Z" fill="#C5C5C3"/>
<path fill-rule="evenodd" clip-rule="evenodd" d="M33.2208 112.528C37.4033 111.388 48.3274 109.47 48.3274 109.47L46.4565 109.618C46.4565 109.618 40.1247 110.366 31.3499 112.676L33.2208 112.528Z" fill="#C5C5C3"/>
<path fill-rule="evenodd" clip-rule="evenodd" d="M48.3195 109.47C48.3195 109.47 37.3954 111.388 33.2129 112.528C33.4216 113.18 33.6304 113.824 33.8546 114.476C33.8546 114.476 44.4539 112.454 48.9612 111.462C48.7447 110.803 48.5282 110.136 48.3195 109.47Z" fill="#B5B5B2"/>
<path fill-rule="evenodd" clip-rule="evenodd" d="M48.9613 111.462C44.4618 112.454 33.8547 114.476 33.8547 114.476L32.3008 115.564C32.3008 115.564 41.0524 113.743 47.3997 112.58L48.9536 111.462H48.9613Z" fill="#C5C5C3"/>
<path fill-rule="evenodd" clip-rule="evenodd" d="M29.4014 94.8435C29.4014 94.8435 33.9473 93.4142 39.4364 92.2663C41.0754 91.9257 42.7917 91.6072 44.5003 91.3554L42.6139 90.963C42.6139 90.963 41.6553 91.0888 39.9312 91.4073C37.3027 91.8887 32.9191 92.8292 27.5073 94.4658L29.3937 94.8509L29.4014 94.8435Z" fill="#C5C5C3"/>
<path fill-rule="evenodd" clip-rule="evenodd" d="M39.4442 92.2663C33.9473 93.4216 29.4092 94.8435 29.4092 94.8435C29.4865 95.5174 29.5715 96.1913 29.672 96.8652C37.179 94.7176 44.7786 93.429 44.7786 93.429C44.7555 93.2809 44.74 93.1328 44.7168 92.9847C44.6472 92.4441 44.5776 91.9035 44.5158 91.3629C42.8072 91.6146 41.0832 91.9331 39.4519 92.2737L39.4442 92.2663Z" fill="#B5B5B2"/>
<path fill-rule="evenodd" clip-rule="evenodd" d="M44.771 93.4216C44.771 93.4216 37.1713 94.7102 29.6644 96.8578L27.9094 97.4577C27.9094 97.4577 33.7155 95.6285 43.016 94.0363L44.771 93.429V93.4216Z" fill="#C5C5C3"/>
<path fill-rule="evenodd" clip-rule="evenodd" d="M29.0458 77.1663C29.0072 77.6255 28.9762 78.0772 28.9453 78.5364C35.2848 76.448 42.1501 75.3298 42.1501 75.3298L44.0133 75.2557C44.0519 74.5818 44.0983 73.9153 44.1447 73.2488C35.3544 74.6188 29.0458 77.1663 29.0458 77.1663Z" fill="#B5B5B2"/>
<path fill-rule="evenodd" clip-rule="evenodd" d="M37.9211 45.6333C41.7017 44.2114 45.9538 43.0709 48.4819 42.4415C49.8503 42.1008 50.7161 41.9157 50.7161 41.9157L50.7625 41.9379C52.1928 41.5602 53.2906 41.2788 53.2906 41.2788L52.9582 40.8641L51.9531 39.5977C49.6956 40.0198 47.3531 40.6493 45.2116 41.3158C40.5806 42.7377 36.8542 44.3151 36.8542 44.3151L37.1248 44.6409L37.9366 45.6333H37.9211Z" fill="#C5C5C3"/>
<path fill-rule="evenodd" clip-rule="evenodd" d="M50.7549 41.9379L52.4557 42.8414C52.7263 42.3156 53.0046 41.7972 53.2907 41.2862C53.2907 41.2862 52.1929 41.5676 50.7626 41.9453L50.7549 41.9379Z" fill="#B5B5B2"/>
<path fill-rule="evenodd" clip-rule="evenodd" d="M46.9125 57.1342C46.9976 56.838 47.0749 56.5343 47.1676 56.2381C40.4725 57.4378 32.061 60.5556 32.061 60.5556C31.9992 60.7703 31.9373 60.9851 31.8755 61.2073C34.5659 60.363 39.4597 58.8967 44.8097 57.6155L46.6651 58.0599C46.7502 57.7488 46.8275 57.4378 46.9125 57.1268V57.1342Z" fill="#B5B5B2"/>
<path fill-rule="evenodd" clip-rule="evenodd" d="M32.061 60.563C32.061 60.563 40.4648 57.4452 47.1676 56.2455L46.0234 55.2976L45.5596 54.9125C45.5596 54.9125 45.4359 54.9347 45.1962 54.9866C43.8665 55.268 38.9031 56.4084 30.4607 59.2596L32.0688 60.563H32.061Z" fill="#C5C5C3"/>
<path fill-rule="evenodd" clip-rule="evenodd" d="M61.0527 27.2452C52.6025 29.7779 45.946 32.2514 45.946 32.2514L46.4795 33.2289C55.7336 30.0001 59.4059 29.0299 59.4059 29.0299L60.1404 29.6594C60.7589 29.4669 61.3928 29.2743 62.0268 29.0818L61.0527 27.2378V27.2452Z" fill="#C5C5C3"/>
<path fill-rule="evenodd" clip-rule="evenodd" d="M62.0268 29.0892C61.3928 29.2817 60.7589 29.4743 60.1404 29.6668L60.9599 30.3703C61.3232 29.963 61.6943 29.5557 62.0654 29.1632L62.0268 29.0966V29.0892Z" fill="#B5B5B2"/>
<path fill-rule="evenodd" clip-rule="evenodd" d="M70.33 19.5804L71.3041 20.8245C71.8685 20.6764 72.4097 20.5431 72.9277 20.4246L72.487 19.0546L72.2782 18.3955C72.2782 18.3955 64.0214 20.9727 57.1716 23.609V23.6461C57.1716 23.6461 57.2567 23.8682 57.2876 23.9571C57.2876 23.9719 69.1781 19.9137 70.3377 19.5804H70.33Z" fill="#C5C5C3"/>
<path fill-rule="evenodd" clip-rule="evenodd" d="M72.9277 20.432C72.4097 20.5505 71.8686 20.6838 71.3042 20.8319L71.6212 21.2318C72.0541 20.9578 72.4871 20.6912 72.9277 20.432Z" fill="#B5B5B2"/>
<path fill-rule="evenodd" clip-rule="evenodd" d="M104.679 168.344C105.213 168.263 105.708 168.181 106.148 168.092L105.847 165.9C105.847 165.9 104.478 166.115 104.169 166.167L103.891 167.441L103.821 167.759C103.52 167.811 103.195 167.855 102.847 167.907C99.3604 168.418 93.9873 168.951 90.9722 169.233L91.0495 169.759C91.0495 169.759 97.7524 169.262 102.832 168.603C103.481 168.522 104.107 168.433 104.687 168.344H104.679Z" fill="#C5C5C3"/>
<path fill-rule="evenodd" clip-rule="evenodd" d="M104.277 165.678L104.169 166.167C104.478 166.122 105.847 165.9 105.847 165.9C105.321 165.834 104.803 165.76 104.277 165.678Z" fill="#B5B5B2"/>
<path fill-rule="evenodd" clip-rule="evenodd" d="M29.046 77.1663C29.046 77.1663 32.5018 75.6482 44.1449 73.2488L42.3512 72.3527C33.7233 74.0264 27.2446 76.2925 27.2446 76.2925L29.0382 77.1663H29.046Z" fill="#C5C5C3"/>
<path fill-rule="evenodd" clip-rule="evenodd" d="M98.193 14.0558L98.278 12.1082L96.322 12.8043L96.7086 14.0188C97.2034 14.0188 97.6982 14.0336 98.193 14.0558Z" fill="#C5C5C3"/>
<path fill-rule="evenodd" clip-rule="evenodd" d="M109.736 15.3518L109.828 15.9813C110.315 16.122 110.802 16.2701 111.29 16.4256L111.707 14.6631L109.736 15.3518Z" fill="#C5C5C3"/>
<path fill-rule="evenodd" clip-rule="evenodd" d="M124.572 20.669L122.484 21.3799C122.94 21.6391 123.396 21.9057 123.845 22.1797L124.564 20.669H124.572Z" fill="#C5C5C3"/>
<path fill-rule="evenodd" clip-rule="evenodd" d="M136.362 29.7409L134.676 30.2889C134.916 30.5037 135.148 30.7184 135.38 30.9406L136.354 29.7409H136.362Z" fill="#C5C5C3"/>
<path fill-rule="evenodd" clip-rule="evenodd" d="M146.598 41.4195L145.129 41.8712C145.221 42.0045 145.322 42.1304 145.415 42.2637L146.59 41.4195H146.598Z" fill="#C5C5C3"/>
<path fill-rule="evenodd" clip-rule="evenodd" d="M117.962 165.922L117.9 167.878C119.198 167.766 120.118 167.692 120.118 167.692L119.515 165.811L119.461 165.648C118.959 165.73 118.464 165.811 117.962 165.878V165.922Z" fill="#C0C0C0"/>
<path fill-rule="evenodd" clip-rule="evenodd" d="M130.718 162.146L130.927 163.582C132.202 163.412 133.022 163.301 133.022 163.301L132.071 161.501C131.622 161.723 131.174 161.946 130.718 162.153V162.146Z" fill="#C5C5C3"/>
<path fill-rule="evenodd" clip-rule="evenodd" d="M141.943 154.91L142.198 155.718C143.497 155.518 144.278 155.392 144.278 155.392L143.088 153.903C142.709 154.244 142.33 154.585 141.943 154.918V154.91Z" fill="#C5C5C3"/>
<path fill-rule="evenodd" clip-rule="evenodd" d="M151.236 144.794L153.424 144.468L152.071 143.35C151.778 143.795 151.476 144.239 151.167 144.668L151.229 144.787L151.236 144.794Z" fill="#C5C5C3"/>
<path fill-rule="evenodd" clip-rule="evenodd" d="M158.271 131.479L160.119 131.168L158.681 130.45C158.55 130.798 158.411 131.138 158.279 131.479H158.271Z" fill="#C5C5C3"/>
<path fill-rule="evenodd" clip-rule="evenodd" d="M121.379 34.1324C123.783 32.9623 126.868 34.873 128.29 38.4054C129.713 41.9305 128.955 45.774 126.582 47.0033C124.185 48.2401 121.046 46.3516 119.6 42.7747C118.155 39.1904 118.959 35.3247 121.379 34.1398V34.1324Z" fill="#FEB1B2"/>
<path fill-rule="evenodd" clip-rule="evenodd" d="M81.3315 18.5066L81.6021 19.336C82.0969 19.336 82.5917 19.3508 83.0864 19.373L83.1715 17.4698C85.3362 17.5809 87.5009 17.8327 89.6579 18.2252C91.2582 18.514 92.8509 18.8769 94.4357 19.3138L94.7218 21.254C95.2088 21.3948 95.6959 21.5355 96.183 21.691L96.6004 19.9655C100.288 21.1504 103.922 22.7204 107.439 24.668L107.378 26.5268C107.834 26.7786 108.29 27.0452 108.746 27.3118L109.465 25.8307C112.913 27.8969 116.245 30.3185 119.43 33.0586L119.044 34.7619C119.461 35.1247 119.871 35.4876 120.281 35.8579L121.255 34.6878C124.324 37.5093 127.231 40.6493 129.945 44.0781L129.264 45.5518C129.62 45.9962 129.968 46.4553 130.308 46.9144L131.483 46.0924C134.05 49.536 136.423 53.2462 138.573 57.2156L137.637 58.4153C137.916 58.9263 138.186 59.4447 138.449 59.9705L139.771 59.5188C140.768 61.4887 141.712 63.5104 142.593 65.5988C143.474 67.6872 144.278 69.7829 145.005 71.8935L143.861 72.76C144.054 73.3228 144.24 73.8782 144.417 74.4411L145.832 74.3818C147.208 78.7363 148.268 83.1278 149.01 87.5045L147.703 88.0081C147.804 88.5932 147.889 89.1782 147.981 89.7632L149.419 90.1039C150.061 94.5917 150.378 99.0573 150.386 103.456L148.971 103.567C148.971 104.152 148.963 104.73 148.948 105.308L150.355 106.033C150.239 110.469 149.798 114.839 149.048 119.075L147.587 118.778C147.487 119.334 147.378 119.889 147.262 120.437L148.569 121.533C147.688 125.747 146.497 129.82 144.99 133.708L143.552 133.005C143.351 133.516 143.142 134.019 142.933 134.523L144.077 135.959C142.454 139.758 140.529 143.358 138.302 146.697L136.949 145.601C136.655 146.038 136.354 146.468 136.045 146.89L136.965 148.608C134.653 151.8 132.048 154.74 129.148 157.354L127.958 155.895C127.579 156.229 127.2 156.562 126.814 156.88L127.448 158.813C125.979 160.035 124.44 161.175 122.832 162.227C121.216 163.286 119.57 164.227 117.892 165.071L116.941 163.308C116.493 163.53 116.044 163.738 115.588 163.945L115.89 166.019C115.565 166.159 115.24 166.3 114.915 166.441C116.956 167.055 118.882 167.833 116.725 168.159C108.932 169.314 99.1517 170.684 91.0186 169.759L90.9413 169.233C89.5728 169.359 88.6915 169.44 88.6915 169.44C84.6713 168.796 80.6589 167.67 76.716 166.085L76.7701 164.856C75.3244 165.012 74.4121 165.1 74.4121 165.1C70.4615 163.323 66.596 161.079 62.8773 158.391L63.3257 156.554C62.4521 156.643 61.5785 156.717 60.728 156.784C57.079 153.94 53.6 150.667 50.3452 146.986L51.2497 145.135C51.0641 144.928 50.8863 144.713 50.7008 144.505L50.7704 144.587C49.3246 144.742 48.4819 144.809 48.4819 144.809C45.374 141.047 42.4981 136.907 39.9236 132.42L41.1915 130.901C40.9441 130.457 40.689 130.013 40.4493 129.561V129.576C39.8076 129.657 39.1505 129.731 38.4856 129.805C37.2873 127.561 36.1585 125.236 35.1148 122.837C34.0711 120.437 33.1279 118.008 32.2853 115.564L33.8392 114.476C33.6227 113.831 33.4063 113.18 33.1975 112.528L31.3266 112.676C29.7572 107.626 28.613 102.531 27.8862 97.4577L29.6412 96.8578C29.5484 96.1839 29.4634 95.51 29.3784 94.8361L27.492 94.451C26.9121 89.2893 26.7652 84.1794 27.0204 79.188C27.6389 78.9585 28.2805 78.7363 28.9145 78.529C28.9454 78.0698 28.9763 77.6107 29.015 77.1589L27.2214 76.2851C27.6389 71.3233 28.4661 66.5023 29.6799 61.9034C29.6799 61.9034 30.4762 61.6368 31.8446 61.2073L31.8214 61.2887C31.891 61.0443 31.9605 60.7999 32.0301 60.5556L30.4221 59.2522C31.775 54.7718 33.499 50.521 35.571 46.5664C36.3054 46.2405 37.0863 45.9295 37.8826 45.6259L36.808 44.3077C38.9727 40.5456 41.4698 37.0872 44.2685 33.9843C45.0261 33.7177 45.7529 33.4585 46.4487 33.2215L45.9152 32.244C48.7371 29.3854 51.8373 26.8749 55.1926 24.7643C55.1926 24.7643 55.9811 24.4459 57.249 23.9571L57.1331 23.6164C58.7953 22.6759 60.5116 21.8317 62.2897 21.0837C68.5365 18.4695 78.4478 15.2407 82.7463 13.8929L81.2928 18.5066H81.3315Z" fill="url(#paint1_linear_6_436)"/>
<path fill-rule="evenodd" clip-rule="evenodd" d="M83.7667 15.7517C84.246 15.6184 84.7176 15.4851 85.197 15.3666L84.9186 13.3227C88.6141 12.434 92.3482 12.0193 96.0824 12.0415L96.7163 14.0114C97.2111 14.0114 97.7059 14.0262 98.2007 14.0484L98.2857 12.1007C100.45 12.2118 102.615 12.471 104.772 12.8709C106.373 13.1671 107.965 13.5374 109.55 13.9892L109.836 15.9739C110.323 16.1146 110.81 16.2627 111.297 16.4182L111.715 14.6557C115.402 15.8628 119.036 17.4772 122.554 19.4693L122.492 21.3726C122.948 21.6317 123.404 21.9058 123.86 22.1798L124.579 20.669C128.027 22.787 131.359 25.2605 134.545 28.0746L134.158 29.8149C134.576 30.1852 134.985 30.5555 135.395 30.9406L136.369 29.7409C139.438 32.6291 142.345 35.8505 145.059 39.3533L144.379 40.8641C144.734 41.3232 145.082 41.7898 145.422 42.2563L146.598 41.4121C149.164 44.9372 151.538 48.7436 153.687 52.8019L152.751 54.0238C153.03 54.5496 153.3 55.0828 153.563 55.616L154.885 55.1569C155.883 57.1712 156.826 59.2522 157.707 61.385C158.588 63.5178 159.393 65.6728 160.119 67.8279L158.975 68.7165C159.168 69.2942 159.354 69.8644 159.532 70.4421L160.946 70.3828C162.323 74.8484 163.382 79.3436 164.132 83.824L162.825 84.335C162.926 84.9348 163.011 85.5347 163.103 86.1345L164.541 86.4826C165.183 91.0741 165.5 95.6507 165.508 100.161L164.093 100.272C164.093 100.872 164.085 101.464 164.07 102.057L165.477 102.805C165.361 107.352 164.92 111.825 164.17 116.164L162.709 115.861C162.609 116.431 162.5 116.994 162.384 117.564L163.691 118.69C162.81 123.007 161.619 127.184 160.112 131.161L158.674 130.442C158.473 130.961 158.271 131.479 158.055 131.99L159.199 133.456C157.576 137.352 155.651 141.032 153.424 144.454L152.071 143.335C151.777 143.78 151.476 144.224 151.167 144.654L152.087 146.409C149.775 149.682 147.17 152.689 144.27 155.362L143.08 153.874C142.701 154.214 142.322 154.555 141.936 154.888L142.57 156.873C141.101 158.124 139.562 159.294 137.954 160.368C136.338 161.449 134.692 162.42 133.014 163.279L132.063 161.479C131.615 161.701 131.166 161.923 130.71 162.131L131.012 164.256C127.478 165.863 123.829 166.996 120.111 167.67L119.454 165.626C118.951 165.708 118.456 165.789 117.954 165.856L117.884 168.018C114.011 168.522 110.076 168.537 106.141 168.077L105.839 165.885C105.313 165.819 104.795 165.745 104.27 165.663L103.813 167.752C99.7933 167.093 95.7809 165.937 91.838 164.315L91.9308 162.094C91.4128 161.879 90.8948 161.649 90.3845 161.412L89.5341 163.308C85.5835 161.486 81.718 159.183 77.9993 156.436L78.5018 154.318C78.0147 153.955 77.5354 153.585 77.0561 153.2L75.85 154.784C72.2009 151.874 68.7219 148.519 65.4671 144.75L66.3717 142.854C65.9465 142.358 65.529 141.854 65.1192 141.351L63.6039 142.521C60.496 138.67 57.6201 134.426 55.0456 129.835L56.3135 128.28C55.9811 127.687 55.6564 127.087 55.3394 126.48L53.5999 127.162C52.4015 124.858 51.2728 122.481 50.2291 120.023C49.1854 117.564 48.2422 115.076 47.3995 112.573L48.9535 111.454C48.737 110.795 48.5205 110.129 48.3118 109.462L46.4409 109.61C44.8714 104.434 43.7272 99.2128 43.0005 94.0215L44.7555 93.4142C44.6627 92.7255 44.5777 92.0368 44.4926 91.3481L42.6062 90.9556C42.0264 85.668 41.8795 80.4322 42.1346 75.3223L43.9978 75.2483C44.0365 74.5744 44.0829 73.9079 44.1293 73.2414L42.3356 72.3453C42.7531 67.2651 43.5803 62.3255 44.7941 57.6156L46.6496 58.0599C46.8119 57.4452 46.9743 56.838 47.1521 56.2307L45.544 54.8977C46.897 50.3062 48.621 45.9517 50.693 41.9009L52.4402 42.8266C52.7108 42.3008 52.9891 41.7824 53.2752 41.2714L51.9377 39.5903C54.1024 35.7394 56.5995 32.1921 59.3982 29.0151L60.9444 30.3481C61.3078 29.9408 61.6789 29.5335 62.05 29.141L61.0372 27.2304C63.8591 24.2978 66.9592 21.728 70.3146 19.5656L71.5979 21.217C72.0309 20.943 72.4638 20.6764 72.9045 20.4172L72.2551 18.3881C73.9173 17.4254 75.6336 16.5589 77.4117 15.7961C79.1821 15.0408 80.968 14.4039 82.7694 13.8781L83.7435 15.7369L83.7667 15.7517Z" fill="url(#paint2_linear_6_436)"/>
<path fill-rule="evenodd" clip-rule="evenodd" d="M85.3748 29.5409C95.5799 25.5863 106.427 26.4602 116.384 31.0072C117.212 29.9556 118.248 29.141 119.469 28.6448C124.247 26.712 130.084 30.437 132.55 36.9465C133.393 39.1608 133.741 41.4195 133.648 43.5227C140.065 50.2322 145.5 58.7856 149.296 68.7832C160.939 99.472 152.983 134.256 130.308 147.275C106.117 161.161 74.5899 145.276 61.3542 110.832C48.0721 76.2702 59.5374 39.5533 85.3825 29.5409H85.3748Z" fill="url(#paint3_linear_6_436)"/>
<path fill-rule="evenodd" clip-rule="evenodd" d="M83.7745 31.0813C93.9254 27.2008 104.703 28.0598 114.591 32.518C115.41 31.4886 116.446 30.6888 117.66 30.2C122.415 28.3042 128.205 31.9626 130.641 38.3462C131.468 40.5234 131.808 42.7377 131.715 44.8039C138.07 51.3875 143.451 59.7854 147.201 69.5978C158.689 99.7238 150.695 133.871 128.128 146.653C104.053 160.287 72.7576 144.691 59.6998 110.877C46.5955 76.9516 58.0762 40.9011 83.7899 31.0739L83.7745 31.0813Z" fill="#F6F6F6"/>
<path fill-rule="evenodd" clip-rule="evenodd" d="M121.464 33.8584C123.845 34.3249 126.157 36.4355 127.316 39.5014C128.414 42.4192 128.19 45.4629 126.937 47.5217L127.239 48.2697L125.159 49.3435C124.974 49.4546 124.788 49.5508 124.587 49.6397C121.433 50.9949 117.536 48.6029 115.905 44.2855C114.374 40.242 115.395 35.9838 118.139 34.399L121.015 32.7327L121.472 33.8658L121.464 33.8584Z" fill="url(#paint4_linear_6_436)"/>
<path fill-rule="evenodd" clip-rule="evenodd" d="M63.6117 142.528C64.3848 142.365 65.0961 142.225 65.7378 142.106C65.5291 141.862 65.328 141.61 65.1193 141.358L63.604 142.528H63.6117Z" fill="#EBEBEB"/>
<path fill-rule="evenodd" clip-rule="evenodd" d="M104.277 165.678L104.169 166.167C104.478 166.122 105.847 165.9 105.847 165.9C105.321 165.834 104.803 165.76 104.277 165.678ZM72.9277 20.432C72.4097 20.5505 71.8685 20.6838 71.3041 20.8319L71.6211 21.2318C72.054 20.9578 72.487 20.6912 72.9277 20.432ZM62.0268 29.0892C61.3928 29.2817 60.7589 29.4743 60.1404 29.6668L60.9599 30.3703C61.3232 29.963 61.6943 29.5557 62.0654 29.1632L62.0268 29.0966V29.0892ZM50.7548 41.9379L52.4556 42.8414C52.7262 42.3156 53.0046 41.7972 53.2906 41.2862C53.2906 41.2862 52.1928 41.5676 50.7625 41.9453L50.7548 41.9379ZM46.9124 57.1342C46.9975 56.838 47.0748 56.5343 47.1676 56.2381C40.4724 57.4378 32.061 60.5556 32.061 60.5556C31.9991 60.7703 31.9373 60.9851 31.8754 61.2073C34.5658 60.363 39.4596 58.8967 44.8096 57.6156L46.665 58.0599C46.7501 57.7489 46.8274 57.4378 46.9124 57.1268V57.1342ZM29.0458 77.1663C29.0072 77.6255 28.9762 78.0772 28.9453 78.5364C35.2848 76.448 42.1501 75.3297 42.1501 75.3297L44.0133 75.2557C44.0519 74.5818 44.0983 73.9153 44.1447 73.2488C35.3544 74.6188 29.0458 77.1663 29.0458 77.1663ZM39.4442 92.2663C33.9473 93.4216 29.4092 94.8435 29.4092 94.8435C29.4865 95.5174 29.5715 96.1913 29.672 96.8652C37.179 94.7176 44.7786 93.429 44.7786 93.429C44.7555 93.2809 44.74 93.1328 44.7168 92.9847C44.6472 92.4441 44.5776 91.9035 44.5158 91.3629C42.8072 91.6147 41.0832 91.9331 39.4519 92.2738L39.4442 92.2663ZM48.3195 109.47C48.3195 109.47 37.3954 111.388 33.2129 112.528C33.4216 113.18 33.6304 113.824 33.8546 114.476C33.8546 114.476 44.4539 112.454 48.9612 111.462C48.7447 110.803 48.5282 110.136 48.3195 109.47ZM41.2069 130.894C50.0745 130.072 56.3135 128.28 56.3135 128.28C55.981 127.687 55.6563 127.087 55.3394 126.48L53.5999 127.162C53.5999 127.162 47.7165 128.657 40.4724 129.576C40.7121 130.02 40.9595 130.464 41.2069 130.901V130.894ZM63.6117 142.528C58.3081 143.661 53.4993 144.283 50.8012 144.579C50.9558 144.765 51.1182 144.95 51.2805 145.128C51.2805 145.128 59.9394 144.335 66.3794 142.861C66.1629 142.61 65.9542 142.358 65.7377 142.106C65.529 141.862 65.328 141.61 65.1192 141.358L63.6039 142.528H63.6117ZM75.8655 154.777C77.4272 154.525 78.5095 154.325 78.5095 154.325C78.0225 153.962 77.5431 153.592 77.0638 153.207L75.8655 154.77V154.777ZM90.3923 161.427L89.5418 163.323C90.4155 163.197 91.204 163.049 91.9076 162.879L91.9385 162.109C91.4205 161.894 90.9025 161.664 90.3923 161.427Z" fill="url(#paint5_linear_6_436)"/>
<path fill-rule="evenodd" clip-rule="evenodd" d="M158.272 131.479L160.119 131.168L158.681 130.45C158.55 130.798 158.411 131.138 158.279 131.479H158.272ZM146.598 41.4195L145.129 41.8713C145.222 42.0046 145.322 42.1305 145.415 42.2638L146.59 41.4195H146.598ZM136.362 29.7409L134.676 30.2889C134.916 30.5037 135.148 30.7184 135.38 30.9406L136.354 29.7409H136.362ZM124.572 20.669L122.484 21.38C122.94 21.6392 123.397 21.9058 123.845 22.1798L124.564 20.669H124.572ZM109.736 15.3518L109.828 15.9813C110.316 16.122 110.803 16.2701 111.29 16.4256L111.707 14.6631L109.736 15.3518ZM98.1931 14.0558L98.2782 12.1082L96.3222 12.8043L96.7087 14.0188C97.2035 14.0188 97.6983 14.0336 98.1931 14.0558ZM84.911 13.3227L82.7927 13.8929L83.7668 15.7517L85.1971 15.3666L84.9188 13.3227H84.911ZM70.3302 19.5804L71.3043 20.8245C71.8687 20.6764 72.4098 20.5431 72.9278 20.4246L72.4871 19.0546L72.2784 18.3955C72.2784 18.3955 64.0216 20.9727 57.1718 23.609V23.6461C57.1718 23.6461 57.2568 23.8682 57.2878 23.9571C57.2878 23.9719 69.1782 19.9137 70.3379 19.5804H70.3302ZM61.0528 27.2452C52.6027 29.7779 45.9462 32.2514 45.9462 32.2514L46.4797 33.2289C55.7338 30.0001 59.4061 29.0299 59.4061 29.0299L60.1405 29.6594C60.759 29.4669 61.393 29.2743 62.0269 29.0818L61.0528 27.2378V27.2452ZM37.9213 45.6333C41.7018 44.2114 45.9539 43.071 48.482 42.4415C49.8504 42.1008 50.7163 41.9157 50.7163 41.9157L50.7627 41.9379C52.193 41.5602 53.2908 41.2788 53.2908 41.2788L52.9583 40.8641L51.9533 39.5977C49.6958 40.0199 47.3533 40.6493 45.2118 41.3158C40.5808 42.7377 36.8544 44.3151 36.8544 44.3151L37.125 44.641L37.9368 45.6333H37.9213ZM32.0611 60.563C32.0611 60.563 40.4648 57.4452 47.1677 56.2455L46.0235 55.2976L45.5597 54.9125C45.5597 54.9125 45.436 54.9347 45.1963 54.9866C43.8665 55.268 38.9032 56.4084 30.4608 59.2596L32.0688 60.563H32.0611ZM29.046 77.1663C29.046 77.1663 32.5018 75.6482 44.1449 73.2488L42.3512 72.3527C33.7233 74.0264 27.2446 76.2925 27.2446 76.2925L29.0382 77.1663H29.046ZM29.4016 94.8435C29.4016 94.8435 33.9475 93.4142 39.4366 92.2664C41.0756 91.9257 42.7919 91.6073 44.5005 91.3555L42.6141 90.963C42.6141 90.963 41.6554 91.0889 39.9314 91.4073C37.3028 91.8887 32.9193 92.8292 27.5075 94.4658L29.3939 94.8509L29.4016 94.8435ZM44.7711 93.4216C44.7711 93.4216 37.1714 94.7102 29.6645 96.8578L27.9095 97.4577C27.9095 97.4577 33.7156 95.6285 43.0161 94.0363L44.7711 93.429V93.4216ZM33.2131 112.528C37.3956 111.388 48.3197 109.47 48.3197 109.47L46.4487 109.618C46.4487 109.618 40.1169 110.366 31.3421 112.676L33.2131 112.528ZM48.9613 111.462C44.4618 112.454 33.8547 114.476 33.8547 114.476L32.3008 115.564C32.3008 115.564 41.0524 113.743 47.3997 112.58L48.9536 111.462H48.9613ZM56.3136 128.287C56.3136 128.287 50.0746 130.079 41.207 130.901L39.9391 132.42C39.9391 132.42 48.0413 131.449 55.0457 129.842L56.3136 128.287ZM66.3718 142.869C59.9241 144.343 51.2729 145.135 51.2729 145.135L50.3684 146.986C59.2901 146.438 65.475 144.765 65.475 144.765L66.3796 142.869H66.3718ZM75.8579 154.799C75.8579 154.799 69.5416 155.94 63.3567 156.562L62.9083 158.398C62.9083 158.398 70.0441 157.917 78.0149 156.451L78.5174 154.333C78.5174 154.333 77.4351 154.533 75.8734 154.784L75.8579 154.807V154.799ZM91.9077 162.879C91.2042 163.049 90.4156 163.197 89.542 163.323C85.259 163.923 79.8394 164.53 76.7934 164.856L76.7393 166.085C83.2798 165.848 91.8459 164.323 91.8459 164.323L91.9077 162.871V162.879ZM104.68 168.344C105.213 168.263 105.708 168.181 106.148 168.092L105.847 165.9C105.847 165.9 104.479 166.115 104.169 166.167L103.891 167.441L103.821 167.759C103.52 167.811 103.195 167.855 102.847 167.907C99.3605 168.418 93.9874 168.951 90.9722 169.233L91.0496 169.759C91.0496 169.759 97.7524 169.262 102.832 168.603C103.481 168.522 104.107 168.433 104.687 168.344H104.68ZM117.962 165.922L117.9 167.878C119.199 167.766 120.119 167.692 120.119 167.692L119.516 165.811L119.461 165.648C118.959 165.73 118.464 165.811 117.962 165.878V165.922ZM130.718 162.146L130.927 163.582C132.202 163.412 133.022 163.301 133.022 163.301L132.071 161.501C131.622 161.723 131.174 161.946 130.718 162.153V162.146ZM141.944 154.91L142.199 155.718C143.497 155.518 144.278 155.392 144.278 155.392L143.088 153.903C142.709 154.244 142.33 154.584 141.944 154.918V154.91ZM151.236 144.794L153.424 144.468L152.071 143.35C151.778 143.795 151.476 144.239 151.167 144.668L151.229 144.787L151.236 144.794Z" fill="url(#paint6_linear_6_436)"/>
<path fill-rule="evenodd" clip-rule="evenodd" d="M117.227 73.271C117.227 73.271 117.66 90.5631 123.899 98.9092C128.646 105.263 135.217 122.585 125.538 142.661C125.523 142.691 125.507 142.728 125.492 142.758L128.429 142.373C128.429 142.373 128.46 142.306 128.476 142.276C138.031 122.015 131.36 104.537 126.574 98.1316C120.289 89.7114 119.755 72.2638 119.755 72.2638L117.235 73.2858L117.227 73.271Z" fill="url(#paint7_linear_6_436)"/>
<path fill-rule="evenodd" clip-rule="evenodd" d="M101.255 65.4359C104.641 64.4213 109.133 64.7175 115.001 66.9244L117.49 65.8432C110.045 63.0216 104.819 63.2882 101.262 65.4285L101.255 65.4359Z" fill="url(#paint8_linear_6_436)"/>
<path fill-rule="evenodd" clip-rule="evenodd" d="M65.4672 108.855C58.3005 90.1928 59.0117 70.8049 65.6837 56.1641C66.2403 54.9421 66.8356 53.7498 67.4773 52.602C68.0108 51.6392 68.5674 50.7061 69.1627 49.7952C71.1728 46.6849 73.5076 43.893 76.1362 41.4936C76.4609 41.1973 76.7856 40.9159 77.1103 40.6345C78.3164 39.6051 79.5765 38.6572 80.8908 37.7982C81.0222 37.7093 81.1537 37.6278 81.2851 37.5464C81.3006 37.539 81.316 37.5316 81.3238 37.5168C81.3083 37.5168 81.2928 37.5316 81.2851 37.539C81.1537 37.6056 81.0222 37.6797 80.8908 37.7463C79.592 38.4499 78.3395 39.2349 77.1412 40.0939C76.8165 40.3235 76.4918 40.5605 76.1748 40.8048C73.639 42.7377 71.3429 45.0038 69.2941 47.5439C68.7298 48.2401 68.1886 48.9584 67.6629 49.699C65.9852 52.0614 64.5086 54.6237 63.2329 57.3564C56.4914 71.8565 55.6719 91.0592 62.7227 109.544C67.4387 121.904 74.9224 131.738 83.6508 138.255L86.5577 137.826C77.7906 131.249 70.2528 121.326 65.4595 108.855H65.4672Z" fill="url(#paint9_linear_6_436)"/>
<path fill-rule="evenodd" clip-rule="evenodd" d="M123.288 63.8511C124.061 65.4359 117.227 73.271 117.227 73.271L119.747 72.249C119.747 72.249 126.535 64.3398 125.754 62.7402C125.507 62.2367 121.727 63.8733 119.361 64.9619C121.27 64.1621 123.118 63.503 123.288 63.8437V63.8511Z" fill="url(#paint10_linear_6_436)"/>
<path fill-rule="evenodd" clip-rule="evenodd" d="M128.499 52.4316C130.316 51.6318 131.692 50.1137 132.558 48.1808L130.177 49.4176C129.55 50.7802 128.669 51.9281 127.563 52.7723C127.88 52.6834 128.19 52.5723 128.499 52.4316Z" fill="url(#paint11_linear_6_436)"/>
<path fill-rule="evenodd" clip-rule="evenodd" d="M132.558 48.1808C138.039 54.172 142.693 61.6664 145.995 70.3532C156.718 98.6056 149.311 130.546 128.422 142.365C128.437 142.336 128.453 142.299 128.468 142.269C138.024 122.007 131.352 104.53 126.566 98.1242C120.281 89.704 119.747 72.2564 119.747 72.2564C119.747 72.2564 126.535 64.3472 125.755 62.7476C125.391 62.0071 117.482 65.8506 117.482 65.8506C89.9362 55.4161 92.8586 87.2676 97.5591 99.5535C93.7863 102.064 89.2868 123.829 86.5655 137.826C77.7984 131.249 70.2605 121.326 65.4672 108.855C53.3758 77.3589 63.72 43.7893 87.2613 34.4953C96.1907 30.9702 105.685 31.496 114.498 35.1618C113.864 37.8944 114.065 41.1159 115.256 44.2559C117.776 50.8913 123.737 54.5348 128.499 52.4316C130.316 51.6318 131.692 50.1137 132.558 48.1808ZM121.015 32.7253C124.162 31.4368 128.012 33.8806 129.643 38.1759C131.275 42.4711 130.084 47.0404 126.968 48.403C123.822 49.773 119.91 47.3588 118.255 42.9969C116.593 38.635 117.846 34.0287 121.015 32.7327V32.7253Z" fill="url(#paint12_linear_6_436)"/>
<path d="M56.3522 170.033C72.5987 170.033 85.7691 157.417 85.7691 141.854C85.7691 126.292 72.5987 113.676 56.3522 113.676C40.1057 113.676 26.9353 126.292 26.9353 141.854C26.9353 157.417 40.1057 170.033 56.3522 170.033Z" fill="url(#paint13_radial_6_436)"/>
<path fill-rule="evenodd" clip-rule="evenodd" d="M81.8263 152.755C89.9517 139.277 85.1274 122.044 71.0568 114.261C56.9862 106.478 38.9958 111.099 30.8704 124.577C22.745 138.055 27.5693 155.288 41.6399 163.071C55.7105 170.855 73.7008 166.233 81.8263 152.755Z" fill="url(#paint14_linear_6_436)"/>
<path d="M73.6853 136.574C70.6934 140.469 55.9811 153.518 53.538 156.11C52.8654 156.614 52.2083 155.518 51.729 155.155C50.7162 154.17 49.7343 153.214 48.6674 152.178C46.5646 150.134 44.6395 148.267 42.5753 146.253C41.1682 144.831 40.0395 144.417 41.8099 142.884C42.8304 141.884 44.0133 140.41 45.0802 139.758C45.5673 139.477 45.8765 139.618 46.3636 140.032C48.3118 141.788 50.1595 143.572 52.0923 145.357C52.6721 145.927 53.2211 146.401 53.8241 145.89C56.0584 143.839 66.0547 134.212 68.4204 132.086C69.4951 131.338 70.562 133.167 71.451 133.723C72.2242 134.382 73.6467 135.685 73.7008 136.493V136.559L73.6853 136.574Z" fill="url(#paint15_radial_6_436)"/>
<path d="M80.4037 151.97C84.1842 145.698 84.6095 138.359 82.8004 131.879C80.9836 125.392 76.5923 119.571 70.044 115.949C63.4958 112.328 56.0352 111.595 49.2628 113.328C42.4903 115.068 36.0735 119.089 32.293 125.362C36.1817 118.912 42.096 114.387 49.054 112.602C56.0198 110.817 63.6968 111.573 70.4306 115.298C77.1644 119.023 81.6871 125.014 83.558 131.686C85.4212 138.359 84.2925 145.52 80.4037 151.97Z" fill="white"/>
<path d="M73.9329 134.16C70.9409 138.055 56.2286 151.104 53.7856 153.696C53.113 154.199 52.4558 153.103 51.9765 152.74C50.9637 151.756 49.9819 150.8 48.915 149.763C46.8121 147.719 44.8871 145.853 42.8229 143.839C41.4158 142.417 40.2871 142.002 42.0575 140.469C43.078 139.47 44.2609 137.996 45.3277 137.344C45.8148 137.063 46.1241 137.204 46.6111 137.618C48.5594 139.373 50.4071 141.158 52.3399 142.943C52.9197 143.513 53.4686 143.987 54.0716 143.476C56.3059 141.425 66.3023 131.797 68.668 129.672C69.7426 128.924 70.8095 130.753 71.6986 131.309C72.4717 131.968 73.8942 133.271 73.9484 134.078V134.145L73.9329 134.16Z" fill="white"/>
</g>
<defs>
<filter id="filter0_d_6_436" x="-4" y="0" width="198" height="190" filterUnits="userSpaceOnUse" color-interpolation-filters="sRGB">
<feFlood flood-opacity="0" result="BackgroundImageFix"/>
<feColorMatrix in="SourceAlpha" type="matrix" values="0 0 0 0 0 0 0 0 0 0 0 0 0 0 0 0 0 0 127 0" result="hardAlpha"/>
<feOffset dy="4"/>
<feGaussianBlur stdDeviation="2"/>
<feComposite in2="hardAlpha" operator="out"/>
<feColorMatrix type="matrix" values="0 0 0 0 0 0 0 0 0 0 0 0 0 0 0 0 0 0 0.25 0"/>
<feBlend mode="normal" in2="BackgroundImageFix" result="effect1_dropShadow_6_436"/>
<feBlend mode="normal" in="SourceGraphic" in2="effect1_dropShadow_6_436" result="shape"/>
</filter>
<linearGradient id="paint0_linear_6_436" x1="65.13" y1="114.51" x2="195.814" y2="114.51" gradientUnits="userSpaceOnUse">
<stop stop-color="#B5B5B2"/>
<stop offset="0.54" stop-color="#E1E1DE"/>
<stop offset="1" stop-color="#E7E7E4"/>
</linearGradient>
<linearGradient id="paint1_linear_6_436" x1="181.204" y1="170.908" x2="82.7283" y2="55.5604" gradientUnits="userSpaceOnUse">
<stop stop-color="#B5B5B2"/>
<stop offset="0.54" stop-color="#E1E1DE"/>
<stop offset="1" stop-color="#F6F6F6"/>
</linearGradient>
<linearGradient id="paint2_linear_6_436" x1="198.824" y1="167.371" x2="98.9612" y2="53.6738" gradientUnits="userSpaceOnUse">
<stop stop-color="#D1D1CF"/>
<stop offset="0.54" stop-color="#EEEEEC"/>
<stop offset="1" stop-color="#FAFAFA"/>
</linearGradient>
<linearGradient id="paint3_linear_6_436" x1="189.654" y1="67.8682" x2="110.22" y2="159.641" gradientUnits="userSpaceOnUse">
<stop stop-color="#D1D1CF"/>
<stop offset="0.54" stop-color="#EEEEEC"/>
<stop offset="1" stop-color="#FAFAFA"/>
</linearGradient>
<linearGradient id="paint4_linear_6_436" x1="171.62" y1="55.6478" x2="160.579" y2="67.6528" gradientUnits="userSpaceOnUse">
<stop stop-color="#D1D1CF"/>
<stop offset="0.54" stop-color="#EEEEEC"/>
<stop offset="1" stop-color="#FAFAFA"/>
</linearGradient>
<linearGradient id="paint5_linear_6_436" x1="158.052" y1="145.763" x2="67.9392" y2="73.4874" gradientUnits="userSpaceOnUse">
<stop stop-color="#A4A4A1"/>
<stop offset="0.54" stop-color="#CFCFCC"/>
<stop offset="1" stop-color="#E9E9E9"/>
</linearGradient>
<linearGradient id="paint6_linear_6_436" x1="176.99" y1="183.101" x2="102.771" y2="39.4681" gradientUnits="userSpaceOnUse">
<stop stop-color="#939391"/>
<stop offset="0.54" stop-color="#BABAB7"/>
<stop offset="1" stop-color="#D9D9D9"/>
</linearGradient>
<linearGradient id="paint7_linear_6_436" x1="182.747" y1="126.191" x2="155.563" y2="135.284" gradientUnits="userSpaceOnUse">
<stop stop-color="#D1D1CF"/>
<stop offset="0.54" stop-color="#EEEEEC"/>
<stop offset="1" stop-color="#FAFAFA"/>
</linearGradient>
<linearGradient id="paint8_linear_6_436" x1="152.71" y1="84.3579" x2="152.186" y2="88.3191" gradientUnits="userSpaceOnUse">
<stop stop-color="#D1D1CF"/>
<stop offset="0.54" stop-color="#EEEEEC"/>
<stop offset="1" stop-color="#FAFAFA"/>
</linearGradient>
<linearGradient id="paint9_linear_6_436" x1="137.923" y1="105.175" x2="91.9743" y2="124.387" gradientUnits="userSpaceOnUse">
<stop stop-color="#D1D1CF"/>
<stop offset="0.54" stop-color="#EEEEEC"/>
<stop offset="1" stop-color="#FAFAFA"/>
</linearGradient>
<linearGradient id="paint10_linear_6_436" x1="167.953" y1="84.5661" x2="161.243" y2="92.5149" gradientUnits="userSpaceOnUse">
<stop stop-color="#D1D1CF"/>
<stop offset="0.54" stop-color="#EEEEEC"/>
<stop offset="1" stop-color="#FAFAFA"/>
</linearGradient>
<linearGradient id="paint11_linear_6_436" x1="175.759" y1="68.5684" x2="173.11" y2="72.7899" gradientUnits="userSpaceOnUse">
<stop stop-color="#D1D1CF"/>
<stop offset="0.54" stop-color="#EEEEEC"/>
<stop offset="1" stop-color="#FAFAFA"/>
</linearGradient>
<linearGradient id="paint12_linear_6_436" x1="186.191" y1="148.581" x2="116.19" y2="65.7294" gradientUnits="userSpaceOnUse">
<stop stop-color="#D1D1CF"/>
<stop offset="0.54" stop-color="#EEEEEC"/>
<stop offset="1" stop-color="#FAFAFA"/>
</linearGradient>
<radialGradient id="paint13_radial_6_436" cx="0" cy="0" r="1" gradientUnits="userSpaceOnUse" gradientTransform="translate(49.7257 140.031) rotate(-46.1802) scale(55.6827 55.8329)">
<stop stop-color="#00EBB1"/>
<stop offset="1" stop-color="#339581"/>
</radialGradient>
<linearGradient id="paint14_linear_6_436" x1="84.0122" y1="164.733" x2="146.112" y2="160.226" gradientUnits="userSpaceOnUse">
<stop stop-color="#33C481"/>
<stop offset="1" stop-color="#6DEBB1"/>
</linearGradient>
<radialGradient id="paint15_radial_6_436" cx="0" cy="0" r="1" gradientUnits="userSpaceOnUse" gradientTransform="translate(57.2876 144.083) scale(14.6659 14.0484)">
<stop stop-color="#338881"/>
<stop offset="1" stop-color="#33C481"/>
</radialGradient>
<clipPath id="clip0_6_436">
<rect width="190" height="182" fill="white"/>
</clipPath>
</defs>
</svg>
